<?xml version="1.0" encoding="UTF-8" standalone="no"?>
<!DOCTYPE svg PUBLIC "-//W3C//DTD SVG 1.1//EN"
 "http://www.w3.org/Graphics/SVG/1.1/DTD/svg11.dtd">
<!-- Generated by graphviz version 2.38.0 (20140413.2041)
 -->
<!-- Title: ToscaDiagram Pages: 1 -->
<svg width="789pt" height="811pt"
 viewBox="0.00 0.00 789.00 811.00" xmlns="http://www.w3.org/2000/svg" xmlns:xlink="http://www.w3.org/1999/xlink">
<g id="graph0" class="graph" transform="scale(1 1) rotate(0) translate(4 807)">
<title>ToscaDiagram</title>
<polygon fill="white" stroke="none" points="-4,4 -4,-807 785,-807 785,4 -4,4"/>
<g id="clust1" class="cluster"><title>clusterSubstitutionMappings</title>
<polygon fill="none" stroke="black" points="8,-44 8,-795 773,-795 773,-44 8,-44"/>
<text text-anchor="middle" x="390.5" y="-779.8" font-family="Times,serif" font-size="14.00">tosca.nodes.nfv.example_CNF</text>
</g>
<g id="clust2" class="cluster"><title>clusterextCp_mgmt</title>
<polygon fill="none" stroke="white" points="24,-652 24,-764 372.5,-764 372.5,-652 24,-652"/>
</g>
<g id="clust3" class="cluster"><title>clusterextCp_data</title>
<polygon fill="none" stroke="white" points="29,-52 29,-164 374,-164 374,-52 29,-52"/>
</g>
<g id="clust4" class="cluster"><title>clusterintVL_mgmt</title>
<polygon fill="none" stroke="white" points="408.5,-556 408.5,-668 765,-668 765,-556 408.5,-556"/>
</g>
<g id="clust5" class="cluster"><title>clusterintVL_data</title>
<polygon fill="none" stroke="white" points="408.5,-148 408.5,-260 759.5,-260 759.5,-148 408.5,-148"/>
</g>
<g id="clust6" class="cluster"><title>clustervdu_frontend</title>
<polygon fill="none" stroke="white" points="407,-424 407,-536 747.5,-536 747.5,-424 407,-424"/>
</g>
<g id="clust7" class="cluster"><title>clustervdu_backend</title>
<polygon fill="none" stroke="white" points="407,-280 407,-392 747,-392 747,-280 407,-280"/>
</g>
<g id="clust8" class="cluster"><title>clustercp_frontend_mgmt</title>
<polygon fill="none" stroke="white" points="16,-532 16,-644 358,-644 358,-532 16,-532"/>
</g>
<g id="clust9" class="cluster"><title>clustercp_frontend_data</title>
<polygon fill="none" stroke="white" points="21.5,-292 21.5,-404 358,-404 358,-292 21.5,-292"/>
</g>
<g id="clust10" class="cluster"><title>clustercp_backend_mgmt</title>
<polygon fill="none" stroke="white" points="16.5,-412 16.5,-524 358,-524 358,-412 16.5,-412"/>
</g>
<g id="clust11" class="cluster"><title>clustercp_backend_data</title>
<polygon fill="none" stroke="white" points="21.5,-172 21.5,-284 358,-284 358,-172 21.5,-172"/>
</g>
<!-- extCp_mgmt -->
<g id="node1" class="node"><title>extCp_mgmt</title>
<path fill="none" stroke="black" d="M44,-660.5C44,-660.5 176,-660.5 176,-660.5 182,-660.5 188,-666.5 188,-672.5 188,-672.5 188,-743.5 188,-743.5 188,-749.5 182,-755.5 176,-755.5 176,-755.5 44,-755.5 44,-755.5 38,-755.5 32,-749.5 32,-743.5 32,-743.5 32,-672.5 32,-672.5 32,-666.5 38,-660.5 44,-660.5"/>
<text text-anchor="middle" x="110" y="-740.3" font-family="Times,serif" font-size="14.00">extCp_mgmt: VnfExtCp</text>
<polyline fill="none" stroke="black" points="32,-732.5 188,-732.5 "/>
</g>
<!-- extCp_mgmt_requirement_internal_virtual_link -->
<g id="node2" class="node"><title>extCp_mgmt_requirement_internal_virtual_link</title>
<polygon fill="turquoise" stroke="black" points="352.5,-705 233.5,-705 233.5,-681 352.5,-681 364.5,-693 352.5,-705"/>
<text text-anchor="middle" x="299" y="-689.3" font-family="Times,serif" font-size="14.00">internal_virtual_link</text>
</g>
<!-- extCp_mgmt&#45;&#45;extCp_mgmt_requirement_internal_virtual_link -->
<g id="edge1" class="edge"><title>extCp_mgmt&#45;&#45;extCp_mgmt_requirement_internal_virtual_link</title>
<path fill="none" stroke="black" d="M188.14,-701.812C203.13,-700.61 218.7,-699.361 233.242,-698.194"/>
</g>
<!-- intVL_mgmt_capability_virtual_linkable -->
<g id="node7" class="node"><title>intVL_mgmt_capability_virtual_linkable</title>
<polygon fill="orange" stroke="black" points="509.5,-624 416.5,-624 416.5,-600 509.5,-600 521.5,-612 509.5,-624"/>
<text text-anchor="middle" x="469" y="-608.3" font-family="Times,serif" font-size="14.00">virtual_linkable</text>
</g>
<!-- extCp_mgmt_requirement_internal_virtual_link&#45;&#45;intVL_mgmt_capability_virtual_linkable -->
<g id="edge18" class="edge"><title>extCp_mgmt_requirement_internal_virtual_link&#45;&#45;intVL_mgmt_capability_virtual_linkable</title>
<path fill="none" stroke="black" stroke-dasharray="1,5" d="M337.702,-674.822C365.371,-661.482 402.785,-643.443 430.423,-630.117"/>
</g>
<!-- extCp_data -->
<g id="node3" class="node"><title>extCp_data</title>
<path fill="none" stroke="black" d="M49,-60.5C49,-60.5 171,-60.5 171,-60.5 177,-60.5 183,-66.5 183,-72.5 183,-72.5 183,-143.5 183,-143.5 183,-149.5 177,-155.5 171,-155.5 171,-155.5 49,-155.5 49,-155.5 43,-155.5 37,-149.5 37,-143.5 37,-143.5 37,-72.5 37,-72.5 37,-66.5 43,-60.5 49,-60.5"/>
<text text-anchor="middle" x="110" y="-140.3" font-family="Times,serif" font-size="14.00">extCp_data: VnfExtCp</text>
<polyline fill="none" stroke="black" points="37,-132.5 183,-132.5 "/>
</g>
<!-- extCp_data_requirement_external_virtual_link -->
<g id="node4" class="node"><title>extCp_data_requirement_external_virtual_link</title>
<polygon fill="turquoise" stroke="black" points="354,-92 232,-92 232,-68 354,-68 366,-80 354,-92"/>
<text text-anchor="middle" x="299" y="-76.3" font-family="Times,serif" font-size="14.00">external_virtual_link</text>
</g>
<!-- extCp_data&#45;&#45;extCp_data_requirement_external_virtual_link -->
<g id="edge2" class="edge"><title>extCp_data&#45;&#45;extCp_data_requirement_external_virtual_link</title>
<path fill="none" stroke="black" d="M183.032,-97.2145C199.082,-94.8112 216.025,-92.2743 231.826,-89.9084"/>
</g>
<!-- extCp_data_requirement_internal_virtual_link -->
<g id="node5" class="node"><title>extCp_data_requirement_internal_virtual_link</title>
<polygon fill="turquoise" stroke="black" points="352.5,-149 233.5,-149 233.5,-125 352.5,-125 364.5,-137 352.5,-149"/>
<text text-anchor="middle" x="299" y="-133.3" font-family="Times,serif" font-size="14.00">internal_virtual_link</text>
</g>
<!-- extCp_data&#45;&#45;extCp_data_requirement_internal_virtual_link -->
<g id="edge3" class="edge"><title>extCp_data&#45;&#45;extCp_data_requirement_internal_virtual_link</title>
<path fill="none" stroke="black" d="M183.032,-119.171C199.597,-121.74 217.112,-124.456 233.342,-126.973"/>
</g>
<!-- topology_template_substitution_mappings_requirement_virtual_link_external -->
<g id="node28" class="node"><title>topology_template_substitution_mappings_requirement_virtual_link_external</title>
<polygon fill="turquoise" stroke="black" points="524,-30 402,-30 402,-6 524,-6 536,-18 524,-30"/>
<text text-anchor="middle" x="469" y="-14.3" font-family="Times,serif" font-size="14.00">virtual_link_external</text>
</g>
<!-- extCp_data_requirement_external_virtual_link&#45;&#45;topology_template_substitution_mappings_requirement_virtual_link_external -->
<g id="edge28" class="edge"><title>extCp_data_requirement_external_virtual_link&#45;&#45;topology_template_substitution_mappings_requirement_virtual_link_external</title>
<path fill="none" stroke="black" stroke-dasharray="1,5" d="M349.044,-61.9004C371.126,-53.7511 397.131,-44.1542 419.185,-36.0149"/>
</g>
<!-- intVL_data_capability_virtual_linkable -->
<g id="node9" class="node"><title>intVL_data_capability_virtual_linkable</title>
<polygon fill="orange" stroke="black" points="509.5,-216 416.5,-216 416.5,-192 509.5,-192 521.5,-204 509.5,-216"/>
<text text-anchor="middle" x="469" y="-200.3" font-family="Times,serif" font-size="14.00">virtual_linkable</text>
</g>
<!-- extCp_data_requirement_internal_virtual_link&#45;&#45;intVL_data_capability_virtual_linkable -->
<g id="edge19" class="edge"><title>extCp_data_requirement_internal_virtual_link&#45;&#45;intVL_data_capability_virtual_linkable</title>
<path fill="none" stroke="black" stroke-dasharray="1,5" d="M345.463,-155.131C369.466,-164.704 398.828,-176.413 422.792,-185.971"/>
</g>
<!-- intVL_mgmt -->
<g id="node6" class="node"><title>intVL_mgmt</title>
<path fill="none" stroke="black" d="M584,-564.5C584,-564.5 745,-564.5 745,-564.5 751,-564.5 757,-570.5 757,-576.5 757,-576.5 757,-647.5 757,-647.5 757,-653.5 751,-659.5 745,-659.5 745,-659.5 584,-659.5 584,-659.5 578,-659.5 572,-653.5 572,-647.5 572,-647.5 572,-576.5 572,-576.5 572,-570.5 578,-564.5 584,-564.5"/>
<text text-anchor="middle" x="664.5" y="-644.3" font-family="Times,serif" font-size="14.00">intVL_mgmt: VnfVirtualLink</text>
<polyline fill="none" stroke="black" points="572,-636.5 757,-636.5 "/>
</g>
<!-- intVL_mgmt_capability_virtual_linkable&#45;&#45;intVL_mgmt -->
<g id="edge4" class="edge"><title>intVL_mgmt_capability_virtual_linkable&#45;&#45;intVL_mgmt</title>
<path fill="none" stroke="black" d="M521.6,-612C537.05,-612 554.48,-612 571.701,-612"/>
</g>
<!-- intVL_data -->
<g id="node8" class="node"><title>intVL_data</title>
<path fill="none" stroke="black" d="M589.5,-156.5C589.5,-156.5 739.5,-156.5 739.5,-156.5 745.5,-156.5 751.5,-162.5 751.5,-168.5 751.5,-168.5 751.5,-239.5 751.5,-239.5 751.5,-245.5 745.5,-251.5 739.5,-251.5 739.5,-251.5 589.5,-251.5 589.5,-251.5 583.5,-251.5 577.5,-245.5 577.5,-239.5 577.5,-239.5 577.5,-168.5 577.5,-168.5 577.5,-162.5 583.5,-156.5 589.5,-156.5"/>
<text text-anchor="middle" x="664.5" y="-236.3" font-family="Times,serif" font-size="14.00">intVL_data: VnfVirtualLink</text>
<polyline fill="none" stroke="black" points="577.5,-228.5 751.5,-228.5 "/>
</g>
<!-- intVL_data_capability_virtual_linkable&#45;&#45;intVL_data -->
<g id="edge5" class="edge"><title>intVL_data_capability_virtual_linkable&#45;&#45;intVL_data</title>
<path fill="none" stroke="black" d="M521.6,-204C538.73,-204 558.293,-204 577.306,-204"/>
</g>
<!-- vdu_frontend -->
<g id="node10" class="node"><title>vdu_frontend</title>
<path fill="none" stroke="black" d="M601.5,-432.5C601.5,-432.5 727.5,-432.5 727.5,-432.5 733.5,-432.5 739.5,-438.5 739.5,-444.5 739.5,-444.5 739.5,-515.5 739.5,-515.5 739.5,-521.5 733.5,-527.5 727.5,-527.5 727.5,-527.5 601.5,-527.5 601.5,-527.5 595.5,-527.5 589.5,-521.5 589.5,-515.5 589.5,-515.5 589.5,-444.5 589.5,-444.5 589.5,-438.5 595.5,-432.5 601.5,-432.5"/>
<text text-anchor="middle" x="664.5" y="-512.3" font-family="Times,serif" font-size="14.00">vdu_frontend: Compute</text>
<polyline fill="none" stroke="black" points="589.5,-504.5 739.5,-504.5 "/>
</g>
<!-- vdu_frontend_capability_virtual_compute -->
<g id="node11" class="node"><title>vdu_frontend_capability_virtual_compute</title>
<polygon fill="orange" stroke="black" points="511,-519 415,-519 415,-495 511,-495 523,-507 511,-519"/>
<text text-anchor="middle" x="469" y="-503.3" font-family="Times,serif" font-size="14.00">virtual_compute</text>
</g>
<!-- vdu_frontend_capability_virtual_compute&#45;&#45;vdu_frontend -->
<g id="edge6" class="edge"><title>vdu_frontend_capability_virtual_compute&#45;&#45;vdu_frontend</title>
<path fill="none" stroke="black" d="M523.131,-499.586C543.605,-496.73 567.376,-493.413 589.471,-490.33"/>
</g>
<!-- vdu_frontend_capability_virtual_binding -->
<g id="node12" class="node"><title>vdu_frontend_capability_virtual_binding</title>
<polygon fill="orange" stroke="black" points="508,-465 418,-465 418,-441 508,-441 520,-453 508,-465"/>
<text text-anchor="middle" x="469" y="-449.3" font-family="Times,serif" font-size="14.00">virtual_binding</text>
</g>
<!-- vdu_frontend_capability_virtual_binding&#45;&#45;vdu_frontend -->
<g id="edge7" class="edge"><title>vdu_frontend_capability_virtual_binding&#45;&#45;vdu_frontend</title>
<path fill="none" stroke="black" d="M520.083,-459.988C541.135,-462.926 566.063,-466.404 589.183,-469.63"/>
</g>
<!-- vdu_backend -->
<g id="node13" class="node"><title>vdu_backend</title>
<path fill="none" stroke="black" d="M602,-288.5C602,-288.5 727,-288.5 727,-288.5 733,-288.5 739,-294.5 739,-300.5 739,-300.5 739,-371.5 739,-371.5 739,-377.5 733,-383.5 727,-383.5 727,-383.5 602,-383.5 602,-383.5 596,-383.5 590,-377.5 590,-371.5 590,-371.5 590,-300.5 590,-300.5 590,-294.5 596,-288.5 602,-288.5"/>
<text text-anchor="middle" x="664.5" y="-368.3" font-family="Times,serif" font-size="14.00">vdu_backend: Compute</text>
<polyline fill="none" stroke="black" points="590,-360.5 739,-360.5 "/>
</g>
<!-- vdu_backend_capability_virtual_compute -->
<g id="node14" class="node"><title>vdu_backend_capability_virtual_compute</title>
<polygon fill="orange" stroke="black" points="511,-375 415,-375 415,-351 511,-351 523,-363 511,-375"/>
<text text-anchor="middle" x="469" y="-359.3" font-family="Times,serif" font-size="14.00">virtual_compute</text>
</g>
<!-- vdu_backend_capability_virtual_compute&#45;&#45;vdu_backend -->
<g id="edge8" class="edge"><title>vdu_backend_capability_virtual_compute&#45;&#45;vdu_backend</title>
<path fill="none" stroke="black" d="M523.131,-355.586C543.717,-352.714 567.636,-349.376 589.833,-346.279"/>
</g>
<!-- vdu_backend_capability_virtual_binding -->
<g id="node15" class="node"><title>vdu_backend_capability_virtual_binding</title>
<polygon fill="orange" stroke="black" points="508,-321 418,-321 418,-297 508,-297 520,-309 508,-321"/>
<text text-anchor="middle" x="469" y="-305.3" font-family="Times,serif" font-size="14.00">virtual_binding</text>
</g>
<!-- vdu_backend_capability_virtual_binding&#45;&#45;vdu_backend -->
<g id="edge9" class="edge"><title>vdu_backend_capability_virtual_binding&#45;&#45;vdu_backend</title>
<path fill="none" stroke="black" d="M520.083,-315.988C541.359,-318.957 566.594,-322.478 589.92,-325.733"/>
</g>
<!-- cp_frontend_mgmt -->
<g id="node16" class="node"><title>cp_frontend_mgmt</title>
<path fill="none" stroke="black" d="M36,-540.5C36,-540.5 184,-540.5 184,-540.5 190,-540.5 196,-546.5 196,-552.5 196,-552.5 196,-623.5 196,-623.5 196,-629.5 190,-635.5 184,-635.5 184,-635.5 36,-635.5 36,-635.5 30,-635.5 24,-629.5 24,-623.5 24,-623.5 24,-552.5 24,-552.5 24,-546.5 30,-540.5 36,-540.5"/>
<text text-anchor="middle" x="110" y="-620.3" font-family="Times,serif" font-size="14.00">cp_frontend_mgmt: VduCp</text>
<polyline fill="none" stroke="black" points="24,-612.5 196,-612.5 "/>
</g>
<!-- cp_frontend_mgmt_requirement_virtual_link -->
<g id="node17" class="node"><title>cp_frontend_mgmt_requirement_virtual_link</title>
<polygon fill="turquoise" stroke="black" points="328,-624 258,-624 258,-600 328,-600 340,-612 328,-624"/>
<text text-anchor="middle" x="299" y="-608.3" font-family="Times,serif" font-size="14.00">virtual_link</text>
</g>
<!-- cp_frontend_mgmt&#45;&#45;cp_frontend_mgmt_requirement_virtual_link -->
<g id="edge10" class="edge"><title>cp_frontend_mgmt&#45;&#45;cp_frontend_mgmt_requirement_virtual_link</title>
<path fill="none" stroke="black" d="M196.019,-598.911C217.438,-601.66 239.455,-604.486 257.525,-606.805"/>
</g>
<!-- cp_frontend_mgmt_requirement_virtual_binding -->
<g id="node18" class="node"><title>cp_frontend_mgmt_requirement_virtual_binding</title>
<polygon fill="turquoise" stroke="black" points="338,-570 248,-570 248,-546 338,-546 350,-558 338,-570"/>
<text text-anchor="middle" x="299" y="-554.3" font-family="Times,serif" font-size="14.00">virtual_binding</text>
</g>
<!-- cp_frontend_mgmt&#45;&#45;cp_frontend_mgmt_requirement_virtual_binding -->
<g id="edge11" class="edge"><title>cp_frontend_mgmt&#45;&#45;cp_frontend_mgmt_requirement_virtual_binding</title>
<path fill="none" stroke="black" d="M196.019,-574.361C213.771,-571.513 231.935,-568.599 247.922,-566.034"/>
</g>
<!-- cp_frontend_mgmt_requirement_virtual_link&#45;&#45;intVL_mgmt_capability_virtual_linkable -->
<g id="edge21" class="edge"><title>cp_frontend_mgmt_requirement_virtual_link&#45;&#45;intVL_mgmt_capability_virtual_linkable</title>
<path fill="none" stroke="black" stroke-dasharray="1,5" d="M340.24,-612C363.052,-612 391.838,-612 416.309,-612"/>
</g>
<!-- cp_frontend_mgmt_requirement_virtual_binding&#45;&#45;vdu_frontend_capability_virtual_binding -->
<g id="edge20" class="edge"><title>cp_frontend_mgmt_requirement_virtual_binding&#45;&#45;vdu_frontend_capability_virtual_binding</title>
<path fill="none" stroke="black" stroke-dasharray="1,5" d="M350.353,-542.855C358.817,-538.887 367.085,-533.991 374,-528 392.666,-511.828 383.359,-496.202 402,-480 406.765,-475.858 412.251,-472.295 417.982,-469.244"/>
</g>
<!-- cp_frontend_data -->
<g id="node19" class="node"><title>cp_frontend_data</title>
<path fill="none" stroke="black" d="M41.5,-300.5C41.5,-300.5 178.5,-300.5 178.5,-300.5 184.5,-300.5 190.5,-306.5 190.5,-312.5 190.5,-312.5 190.5,-383.5 190.5,-383.5 190.5,-389.5 184.5,-395.5 178.5,-395.5 178.5,-395.5 41.5,-395.5 41.5,-395.5 35.5,-395.5 29.5,-389.5 29.5,-383.5 29.5,-383.5 29.5,-312.5 29.5,-312.5 29.5,-306.5 35.5,-300.5 41.5,-300.5"/>
<text text-anchor="middle" x="110" y="-380.3" font-family="Times,serif" font-size="14.00">cp_frontend_data: VduCp</text>
<polyline fill="none" stroke="black" points="29.5,-372.5 190.5,-372.5 "/>
</g>
<!-- cp_frontend_data_requirement_virtual_link -->
<g id="node20" class="node"><title>cp_frontend_data_requirement_virtual_link</title>
<polygon fill="turquoise" stroke="black" points="328,-332 258,-332 258,-308 328,-308 340,-320 328,-332"/>
<text text-anchor="middle" x="299" y="-316.3" font-family="Times,serif" font-size="14.00">virtual_link</text>
</g>
<!-- cp_frontend_data&#45;&#45;cp_frontend_data_requirement_virtual_link -->
<g id="edge12" class="edge"><title>cp_frontend_data&#45;&#45;cp_frontend_data_requirement_virtual_link</title>
<path fill="none" stroke="black" d="M190.576,-336.085C213.837,-332.602 238.275,-328.943 257.955,-325.996"/>
</g>
<!-- cp_frontend_data_requirement_virtual_binding -->
<g id="node21" class="node"><title>cp_frontend_data_requirement_virtual_binding</title>
<polygon fill="turquoise" stroke="black" points="338,-389 248,-389 248,-365 338,-365 350,-377 338,-389"/>
<text text-anchor="middle" x="299" y="-373.3" font-family="Times,serif" font-size="14.00">virtual_binding</text>
</g>
<!-- cp_frontend_data&#45;&#45;cp_frontend_data_requirement_virtual_binding -->
<g id="edge13" class="edge"><title>cp_frontend_data&#45;&#45;cp_frontend_data_requirement_virtual_binding</title>
<path fill="none" stroke="black" d="M190.576,-360.341C209.96,-363.347 230.162,-366.48 247.746,-369.207"/>
</g>
<!-- cp_frontend_data_requirement_virtual_link&#45;&#45;intVL_data_capability_virtual_linkable -->
<g id="edge23" class="edge"><title>cp_frontend_data_requirement_virtual_link&#45;&#45;intVL_data_capability_virtual_linkable</title>
<path fill="none" stroke="black" stroke-dasharray="1,5" d="M340.37,-305.315C351.634,-300.488 363.621,-294.633 374,-288 403.69,-269.023 433.215,-240.692 451.039,-222.278"/>
</g>
<!-- cp_frontend_data_requirement_virtual_binding&#45;&#45;vdu_frontend_capability_virtual_binding -->
<g id="edge22" class="edge"><title>cp_frontend_data_requirement_virtual_binding&#45;&#45;vdu_frontend_capability_virtual_binding</title>
<path fill="none" stroke="black" stroke-dasharray="1,5" d="M343.981,-395.001C353.895,-399.176 364.341,-403.668 374,-408 392.985,-416.515 413.882,-426.46 431.142,-434.833"/>
</g>
<!-- cp_backend_mgmt -->
<g id="node22" class="node"><title>cp_backend_mgmt</title>
<path fill="none" stroke="black" d="M36.5,-420.5C36.5,-420.5 183.5,-420.5 183.5,-420.5 189.5,-420.5 195.5,-426.5 195.5,-432.5 195.5,-432.5 195.5,-503.5 195.5,-503.5 195.5,-509.5 189.5,-515.5 183.5,-515.5 183.5,-515.5 36.5,-515.5 36.5,-515.5 30.5,-515.5 24.5,-509.5 24.5,-503.5 24.5,-503.5 24.5,-432.5 24.5,-432.5 24.5,-426.5 30.5,-420.5 36.5,-420.5"/>
<text text-anchor="middle" x="110" y="-500.3" font-family="Times,serif" font-size="14.00">cp_backend_mgmt: VduCp</text>
<polyline fill="none" stroke="black" points="24.5,-492.5 195.5,-492.5 "/>
</g>
<!-- cp_backend_mgmt_requirement_virtual_link -->
<g id="node23" class="node"><title>cp_backend_mgmt_requirement_virtual_link</title>
<polygon fill="turquoise" stroke="black" points="328,-507 258,-507 258,-483 328,-483 340,-495 328,-507"/>
<text text-anchor="middle" x="299" y="-491.3" font-family="Times,serif" font-size="14.00">virtual_link</text>
</g>
<!-- cp_backend_mgmt&#45;&#45;cp_backend_mgmt_requirement_virtual_link -->
<g id="edge14" class="edge"><title>cp_backend_mgmt&#45;&#45;cp_backend_mgmt_requirement_virtual_link</title>
<path fill="none" stroke="black" d="M195.746,-480.236C217.392,-483.361 239.67,-486.578 257.884,-489.208"/>
</g>
<!-- cp_backend_mgmt_requirement_virtual_binding -->
<g id="node24" class="node"><title>cp_backend_mgmt_requirement_virtual_binding</title>
<polygon fill="turquoise" stroke="black" points="338,-452 248,-452 248,-428 338,-428 350,-440 338,-452"/>
<text text-anchor="middle" x="299" y="-436.3" font-family="Times,serif" font-size="14.00">virtual_binding</text>
</g>
<!-- cp_backend_mgmt&#45;&#45;cp_backend_mgmt_requirement_virtual_binding -->
<g id="edge15" class="edge"><title>cp_backend_mgmt&#45;&#45;cp_backend_mgmt_requirement_virtual_binding</title>
<path fill="none" stroke="black" d="M195.746,-455.311C213.527,-452.648 231.734,-449.922 247.764,-447.522"/>
</g>
<!-- cp_backend_mgmt_requirement_virtual_link&#45;&#45;intVL_mgmt_capability_virtual_linkable -->
<g id="edge25" class="edge"><title>cp_backend_mgmt_requirement_virtual_link&#45;&#45;intVL_mgmt_capability_virtual_linkable</title>
<path fill="none" stroke="black" stroke-dasharray="1,5" d="M340.352,-510.293C351.616,-515.273 363.608,-521.274 374,-528 403.582,-547.144 433.135,-575.433 450.994,-593.791"/>
</g>
<!-- cp_backend_mgmt_requirement_virtual_binding&#45;&#45;vdu_backend_capability_virtual_binding -->
<g id="edge24" class="edge"><title>cp_backend_mgmt_requirement_virtual_binding&#45;&#45;vdu_backend_capability_virtual_binding</title>
<path fill="none" stroke="black" stroke-dasharray="1,5" d="M350.044,-424.855C358.835,-420.486 367.299,-414.955 374,-408 397.822,-383.274 377.934,-360.489 402,-336 406.599,-331.32 412.123,-327.421 417.991,-324.179"/>
</g>
<!-- cp_backend_data -->
<g id="node25" class="node"><title>cp_backend_data</title>
<path fill="none" stroke="black" d="M41.5,-180.5C41.5,-180.5 178.5,-180.5 178.5,-180.5 184.5,-180.5 190.5,-186.5 190.5,-192.5 190.5,-192.5 190.5,-263.5 190.5,-263.5 190.5,-269.5 184.5,-275.5 178.5,-275.5 178.5,-275.5 41.5,-275.5 41.5,-275.5 35.5,-275.5 29.5,-269.5 29.5,-263.5 29.5,-263.5 29.5,-192.5 29.5,-192.5 29.5,-186.5 35.5,-180.5 41.5,-180.5"/>
<text text-anchor="middle" x="110" y="-260.3" font-family="Times,serif" font-size="14.00">cp_backend_data: VduCp</text>
<polyline fill="none" stroke="black" points="29.5,-252.5 190.5,-252.5 "/>
</g>
<!-- cp_backend_data_requirement_virtual_link -->
<g id="node26" class="node"><title>cp_backend_data_requirement_virtual_link</title>
<polygon fill="turquoise" stroke="black" points="328,-216 258,-216 258,-192 328,-192 340,-204 328,-216"/>
<text text-anchor="middle" x="299" y="-200.3" font-family="Times,serif" font-size="14.00">virtual_link</text>
</g>
<!-- cp_backend_data&#45;&#45;cp_backend_data_requirement_virtual_link -->
<g id="edge16" class="edge"><title>cp_backend_data&#45;&#45;cp_backend_data_requirement_virtual_link</title>
<path fill="none" stroke="black" d="M190.576,-217.787C213.837,-214.802 238.275,-211.665 257.955,-209.14"/>
</g>
<!-- cp_backend_data_requirement_virtual_binding -->
<g id="node27" class="node"><title>cp_backend_data_requirement_virtual_binding</title>
<polygon fill="turquoise" stroke="black" points="338,-270 248,-270 248,-246 338,-246 350,-258 338,-270"/>
<text text-anchor="middle" x="299" y="-254.3" font-family="Times,serif" font-size="14.00">virtual_binding</text>
</g>
<!-- cp_backend_data&#45;&#45;cp_backend_data_requirement_virtual_binding -->
<g id="edge17" class="edge"><title>cp_backend_data&#45;&#45;cp_backend_data_requirement_virtual_binding</title>
<path fill="none" stroke="black" d="M190.576,-240.766C209.96,-243.876 230.162,-247.117 247.746,-249.938"/>
</g>
<!-- cp_backend_data_requirement_virtual_link&#45;&#45;intVL_data_capability_virtual_linkable -->
<g id="edge27" class="edge"><title>cp_backend_data_requirement_virtual_link&#45;&#45;intVL_data_capability_virtual_linkable</title>
<path fill="none" stroke="black" stroke-dasharray="1,5" d="M340.24,-204C363.052,-204 391.838,-204 416.309,-204"/>
</g>
<!-- cp_backend_data_requirement_virtual_binding&#45;&#45;vdu_backend_capability_virtual_binding -->
<g id="edge26" class="edge"><title>cp_backend_data_requirement_virtual_binding&#45;&#45;vdu_backend_capability_virtual_binding</title>
<path fill="none" stroke="black" stroke-dasharray="1,5" d="M350.406,-273.302C371.765,-279.786 396.595,-287.324 417.92,-293.797"/>
</g>
</g>
</svg>
