<?xml version="1.0" encoding="UTF-8" standalone="no"?>
<!DOCTYPE svg PUBLIC "-//W3C//DTD SVG 1.1//EN"
 "http://www.w3.org/Graphics/SVG/1.1/DTD/svg11.dtd">
<!-- Generated by graphviz version 2.38.0 (20140413.2041)
 -->
<!-- Title: ToscaDiagram Pages: 1 -->
<svg width="815pt" height="811pt"
 viewBox="0.00 0.00 815.00 811.00" xmlns="http://www.w3.org/2000/svg" xmlns:xlink="http://www.w3.org/1999/xlink">
<g id="graph0" class="graph" transform="scale(1 1) rotate(0) translate(4 807)">
<title>ToscaDiagram</title>
<polygon fill="white" stroke="none" points="-4,4 -4,-807 811,-807 811,4 -4,4"/>
<g id="clust1" class="cluster"><title>clusterSubstitutionMappings</title>
<polygon fill="none" stroke="black" points="8,-44 8,-795 799,-795 799,-44 8,-44"/>
<text text-anchor="middle" x="403.5" y="-779.8" font-family="Times,serif" font-size="14.00">tosca.nodes.nfv.MultiVNF_NS</text>
</g>
<g id="clust2" class="cluster"><title>clustervl_mgmt_network</title>
<polygon fill="none" stroke="white" points="424,-382 424,-494 791,-494 791,-382 424,-382"/>
</g>
<g id="clust3" class="cluster"><title>clustervl_data_network</title>
<polygon fill="none" stroke="white" points="424,-262 424,-374 786,-374 786,-262 424,-262"/>
</g>
<g id="clust4" class="cluster"><title>clustervl_vnf1_to_vnf2</title>
<polygon fill="none" stroke="white" points="16,-652 16,-764 234,-764 234,-652 16,-652"/>
</g>
<g id="clust5" class="cluster"><title>clustervl_vnf2_to_cnf</title>
<polygon fill="none" stroke="white" points="424,-556 424,-668 783,-668 783,-556 424,-556"/>
</g>
<g id="clust6" class="cluster"><title>clustervnf1_instance</title>
<polygon fill="none" stroke="white" points="20.5,-412 20.5,-524 404,-524 404,-412 20.5,-412"/>
</g>
<g id="clust7" class="cluster"><title>clustervnf2_instance</title>
<polygon fill="none" stroke="white" points="20.5,-292 20.5,-404 404,-404 404,-292 20.5,-292"/>
</g>
<g id="clust8" class="cluster"><title>clustercnf_instance</title>
<polygon fill="none" stroke="white" points="28.5,-532 28.5,-644 404,-644 404,-532 28.5,-532"/>
</g>
<g id="clust9" class="cluster"><title>clustersap_mgmt</title>
<polygon fill="none" stroke="white" points="65,-172 65,-284 404,-284 404,-172 65,-172"/>
</g>
<g id="clust10" class="cluster"><title>clustersap_data</title>
<polygon fill="none" stroke="white" points="70,-52 70,-164 402.5,-164 402.5,-52 70,-52"/>
</g>
<!-- vl_mgmt_network -->
<g id="node1" class="node"><title>vl_mgmt_network</title>
<path fill="none" stroke="black" d="M585,-390.5C585,-390.5 771,-390.5 771,-390.5 777,-390.5 783,-396.5 783,-402.5 783,-402.5 783,-473.5 783,-473.5 783,-479.5 777,-485.5 771,-485.5 771,-485.5 585,-485.5 585,-485.5 579,-485.5 573,-479.5 573,-473.5 573,-473.5 573,-402.5 573,-402.5 573,-396.5 579,-390.5 585,-390.5"/>
<text text-anchor="middle" x="678" y="-470.3" font-family="Times,serif" font-size="14.00">vl_mgmt_network: NsVirtualLink</text>
<polyline fill="none" stroke="black" points="573,-462.5 783,-462.5 "/>
</g>
<!-- vl_mgmt_network_capability_virtual_linkable -->
<g id="node2" class="node"><title>vl_mgmt_network_capability_virtual_linkable</title>
<polygon fill="orange" stroke="black" points="525,-450 432,-450 432,-426 525,-426 537,-438 525,-450"/>
<text text-anchor="middle" x="484.5" y="-434.3" font-family="Times,serif" font-size="14.00">virtual_linkable</text>
</g>
<!-- vl_mgmt_network_capability_virtual_linkable&#45;&#45;vl_mgmt_network -->
<g id="edge1" class="edge"><title>vl_mgmt_network_capability_virtual_linkable&#45;&#45;vl_mgmt_network</title>
<path fill="none" stroke="black" d="M537.07,-438C548.259,-438 560.479,-438 572.887,-438"/>
</g>
<!-- vl_data_network -->
<g id="node3" class="node"><title>vl_data_network</title>
<path fill="none" stroke="black" d="M590,-270.5C590,-270.5 766,-270.5 766,-270.5 772,-270.5 778,-276.5 778,-282.5 778,-282.5 778,-353.5 778,-353.5 778,-359.5 772,-365.5 766,-365.5 766,-365.5 590,-365.5 590,-365.5 584,-365.5 578,-359.5 578,-353.5 578,-353.5 578,-282.5 578,-282.5 578,-276.5 584,-270.5 590,-270.5"/>
<text text-anchor="middle" x="678" y="-350.3" font-family="Times,serif" font-size="14.00">vl_data_network: NsVirtualLink</text>
<polyline fill="none" stroke="black" points="578,-342.5 778,-342.5 "/>
</g>
<!-- vl_data_network_capability_virtual_linkable -->
<g id="node4" class="node"><title>vl_data_network_capability_virtual_linkable</title>
<polygon fill="orange" stroke="black" points="525,-330 432,-330 432,-306 525,-306 537,-318 525,-330"/>
<text text-anchor="middle" x="484.5" y="-314.3" font-family="Times,serif" font-size="14.00">virtual_linkable</text>
</g>
<!-- vl_data_network_capability_virtual_linkable&#45;&#45;vl_data_network -->
<g id="edge2" class="edge"><title>vl_data_network_capability_virtual_linkable&#45;&#45;vl_data_network</title>
<path fill="none" stroke="black" d="M537.07,-318C549.699,-318 563.642,-318 577.686,-318"/>
</g>
<!-- vl_vnf1_to_vnf2 -->
<g id="node5" class="node"><title>vl_vnf1_to_vnf2</title>
<path fill="none" stroke="black" d="M36,-660.5C36,-660.5 214,-660.5 214,-660.5 220,-660.5 226,-666.5 226,-672.5 226,-672.5 226,-743.5 226,-743.5 226,-749.5 220,-755.5 214,-755.5 214,-755.5 36,-755.5 36,-755.5 30,-755.5 24,-749.5 24,-743.5 24,-743.5 24,-672.5 24,-672.5 24,-666.5 30,-660.5 36,-660.5"/>
<text text-anchor="middle" x="125" y="-740.3" font-family="Times,serif" font-size="14.00">vl_vnf1_to_vnf2: NsVirtualLink</text>
<polyline fill="none" stroke="black" points="24,-732.5 226,-732.5 "/>
</g>
<!-- vl_vnf2_to_cnf -->
<g id="node6" class="node"><title>vl_vnf2_to_cnf</title>
<path fill="none" stroke="black" d="M593,-564.5C593,-564.5 763,-564.5 763,-564.5 769,-564.5 775,-570.5 775,-576.5 775,-576.5 775,-647.5 775,-647.5 775,-653.5 769,-659.5 763,-659.5 763,-659.5 593,-659.5 593,-659.5 587,-659.5 581,-653.5 581,-647.5 581,-647.5 581,-576.5 581,-576.5 581,-570.5 587,-564.5 593,-564.5"/>
<text text-anchor="middle" x="678" y="-644.3" font-family="Times,serif" font-size="14.00">vl_vnf2_to_cnf: NsVirtualLink</text>
<polyline fill="none" stroke="black" points="581,-636.5 775,-636.5 "/>
</g>
<!-- vl_vnf2_to_cnf_capability_virtual_linkable -->
<g id="node7" class="node"><title>vl_vnf2_to_cnf_capability_virtual_linkable</title>
<polygon fill="orange" stroke="black" points="525,-624 432,-624 432,-600 525,-600 537,-612 525,-624"/>
<text text-anchor="middle" x="484.5" y="-608.3" font-family="Times,serif" font-size="14.00">virtual_linkable</text>
</g>
<!-- vl_vnf2_to_cnf_capability_virtual_linkable&#45;&#45;vl_vnf2_to_cnf -->
<g id="edge3" class="edge"><title>vl_vnf2_to_cnf_capability_virtual_linkable&#45;&#45;vl_vnf2_to_cnf</title>
<path fill="none" stroke="black" d="M537.07,-612C550.586,-612 565.605,-612 580.644,-612"/>
</g>
<!-- vnf1_instance -->
<g id="node8" class="node"><title>vnf1_instance</title>
<path fill="none" stroke="black" d="M40.5,-420.5C40.5,-420.5 209.5,-420.5 209.5,-420.5 215.5,-420.5 221.5,-426.5 221.5,-432.5 221.5,-432.5 221.5,-503.5 221.5,-503.5 221.5,-509.5 215.5,-515.5 209.5,-515.5 209.5,-515.5 40.5,-515.5 40.5,-515.5 34.5,-515.5 28.5,-509.5 28.5,-503.5 28.5,-503.5 28.5,-432.5 28.5,-432.5 28.5,-426.5 34.5,-420.5 40.5,-420.5"/>
<text text-anchor="middle" x="125" y="-500.3" font-family="Times,serif" font-size="14.00">vnf1_instance: example_VNF1</text>
<polyline fill="none" stroke="black" points="28.5,-492.5 221.5,-492.5 "/>
</g>
<!-- vnf1_instance_requirement_virtual_link -->
<g id="node9" class="node"><title>vnf1_instance_requirement_virtual_link</title>
<polygon fill="turquoise" stroke="black" points="358,-450 288,-450 288,-426 358,-426 370,-438 358,-450"/>
<text text-anchor="middle" x="329" y="-434.3" font-family="Times,serif" font-size="14.00">virtual_link</text>
</g>
<!-- vnf1_instance&#45;&#45;vnf1_instance_requirement_virtual_link -->
<g id="edge4" class="edge"><title>vnf1_instance&#45;&#45;vnf1_instance_requirement_virtual_link</title>
<path fill="none" stroke="black" d="M221.676,-453.791C245.028,-450.323 268.761,-446.798 287.862,-443.961"/>
</g>
<!-- vnf1_instance_requirement_virtual_link_external -->
<g id="node10" class="node"><title>vnf1_instance_requirement_virtual_link_external</title>
<polygon fill="turquoise" stroke="black" points="384,-504 262,-504 262,-480 384,-480 396,-492 384,-504"/>
<text text-anchor="middle" x="329" y="-488.3" font-family="Times,serif" font-size="14.00">virtual_link_external</text>
</g>
<!-- vnf1_instance&#45;&#45;vnf1_instance_requirement_virtual_link_external -->
<g id="edge5" class="edge"><title>vnf1_instance&#45;&#45;vnf1_instance_requirement_virtual_link_external</title>
<path fill="none" stroke="black" d="M221.676,-479.367C235.239,-480.979 248.93,-482.605 261.767,-484.131"/>
</g>
<!-- vnf1_instance_requirement_virtual_link&#45;&#45;vl_mgmt_network_capability_virtual_linkable -->
<g id="edge13" class="edge"><title>vnf1_instance_requirement_virtual_link&#45;&#45;vl_mgmt_network_capability_virtual_linkable</title>
<path fill="none" stroke="black" stroke-dasharray="1,5" d="M370.33,-438C389.162,-438 411.801,-438 431.866,-438"/>
</g>
<!-- vnf1_instance_requirement_virtual_link_external&#45;&#45;vl_mgmt_network_capability_virtual_linkable -->
<g id="edge14" class="edge"><title>vnf1_instance_requirement_virtual_link_external&#45;&#45;vl_mgmt_network_capability_virtual_linkable</title>
<path fill="none" stroke="black" stroke-dasharray="1,5" d="M381.54,-473.869C397.827,-468.139 415.818,-461.81 432.096,-456.084"/>
</g>
<!-- vnf2_instance -->
<g id="node11" class="node"><title>vnf2_instance</title>
<path fill="none" stroke="black" d="M40.5,-300.5C40.5,-300.5 209.5,-300.5 209.5,-300.5 215.5,-300.5 221.5,-306.5 221.5,-312.5 221.5,-312.5 221.5,-383.5 221.5,-383.5 221.5,-389.5 215.5,-395.5 209.5,-395.5 209.5,-395.5 40.5,-395.5 40.5,-395.5 34.5,-395.5 28.5,-389.5 28.5,-383.5 28.5,-383.5 28.5,-312.5 28.5,-312.5 28.5,-306.5 34.5,-300.5 40.5,-300.5"/>
<text text-anchor="middle" x="125" y="-380.3" font-family="Times,serif" font-size="14.00">vnf2_instance: example_VNF2</text>
<polyline fill="none" stroke="black" points="28.5,-372.5 221.5,-372.5 "/>
</g>
<!-- vnf2_instance_requirement_virtual_link -->
<g id="node12" class="node"><title>vnf2_instance_requirement_virtual_link</title>
<polygon fill="turquoise" stroke="black" points="358,-331 288,-331 288,-307 358,-307 370,-319 358,-331"/>
<text text-anchor="middle" x="329" y="-315.3" font-family="Times,serif" font-size="14.00">virtual_link</text>
</g>
<!-- vnf2_instance&#45;&#45;vnf2_instance_requirement_virtual_link -->
<g id="edge6" class="edge"><title>vnf2_instance&#45;&#45;vnf2_instance_requirement_virtual_link</title>
<path fill="none" stroke="black" d="M221.676,-334.264C245.028,-330.912 268.761,-327.505 287.862,-324.762"/>
</g>
<!-- vnf2_instance_requirement_virtual_link_external -->
<g id="node13" class="node"><title>vnf2_instance_requirement_virtual_link_external</title>
<polygon fill="turquoise" stroke="black" points="384,-388 262,-388 262,-364 384,-364 396,-376 384,-388"/>
<text text-anchor="middle" x="329" y="-372.3" font-family="Times,serif" font-size="14.00">virtual_link_external</text>
</g>
<!-- vnf2_instance&#45;&#45;vnf2_instance_requirement_virtual_link_external -->
<g id="edge7" class="edge"><title>vnf2_instance&#45;&#45;vnf2_instance_requirement_virtual_link_external</title>
<path fill="none" stroke="black" d="M221.676,-361.262C235.239,-363.142 248.93,-365.04 261.767,-366.819"/>
</g>
<!-- vnf2_instance_requirement_virtual_link&#45;&#45;vl_data_network_capability_virtual_linkable -->
<g id="edge15" class="edge"><title>vnf2_instance_requirement_virtual_link&#45;&#45;vl_data_network_capability_virtual_linkable</title>
<path fill="none" stroke="black" stroke-dasharray="1,5" d="M370.33,-318.737C389.162,-318.615 411.801,-318.467 431.866,-318.336"/>
</g>
<!-- vnf2_instance_requirement_virtual_link_external&#45;&#45;vl_mgmt_network_capability_virtual_linkable -->
<g id="edge16" class="edge"><title>vnf2_instance_requirement_virtual_link_external&#45;&#45;vl_mgmt_network_capability_virtual_linkable</title>
<path fill="none" stroke="black" stroke-dasharray="1,5" d="M374.811,-394.1C394.987,-402.249 418.747,-411.846 438.898,-419.985"/>
</g>
<!-- cnf_instance -->
<g id="node14" class="node"><title>cnf_instance</title>
<path fill="none" stroke="black" d="M48.5,-540.5C48.5,-540.5 201.5,-540.5 201.5,-540.5 207.5,-540.5 213.5,-546.5 213.5,-552.5 213.5,-552.5 213.5,-623.5 213.5,-623.5 213.5,-629.5 207.5,-635.5 201.5,-635.5 201.5,-635.5 48.5,-635.5 48.5,-635.5 42.5,-635.5 36.5,-629.5 36.5,-623.5 36.5,-623.5 36.5,-552.5 36.5,-552.5 36.5,-546.5 42.5,-540.5 48.5,-540.5"/>
<text text-anchor="middle" x="125" y="-620.3" font-family="Times,serif" font-size="14.00">cnf_instance: example_CNF</text>
<polyline fill="none" stroke="black" points="36.5,-612.5 213.5,-612.5 "/>
</g>
<!-- cnf_instance_requirement_virtual_link -->
<g id="node15" class="node"><title>cnf_instance_requirement_virtual_link</title>
<polygon fill="turquoise" stroke="black" points="358,-624 288,-624 288,-600 358,-600 370,-612 358,-624"/>
<text text-anchor="middle" x="329" y="-608.3" font-family="Times,serif" font-size="14.00">virtual_link</text>
</g>
<!-- cnf_instance&#45;&#45;cnf_instance_requirement_virtual_link -->
<g id="edge8" class="edge"><title>cnf_instance&#45;&#45;cnf_instance_requirement_virtual_link</title>
<path fill="none" stroke="black" d="M213.719,-598.422C239.592,-601.496 266.648,-604.711 287.936,-607.24"/>
</g>
<!-- cnf_instance_requirement_virtual_link_external -->
<g id="node16" class="node"><title>cnf_instance_requirement_virtual_link_external</title>
<polygon fill="turquoise" stroke="black" points="384,-570 262,-570 262,-546 384,-546 396,-558 384,-570"/>
<text text-anchor="middle" x="329" y="-554.3" font-family="Times,serif" font-size="14.00">virtual_link_external</text>
</g>
<!-- cnf_instance&#45;&#45;cnf_instance_requirement_virtual_link_external -->
<g id="edge9" class="edge"><title>cnf_instance&#45;&#45;cnf_instance_requirement_virtual_link_external</title>
<path fill="none" stroke="black" d="M213.719,-574.972C229.903,-572.569 246.55,-570.097 261.958,-567.808"/>
</g>
<!-- cnf_instance_requirement_virtual_link&#45;&#45;vl_vnf2_to_cnf_capability_virtual_linkable -->
<g id="edge17" class="edge"><title>cnf_instance_requirement_virtual_link&#45;&#45;vl_vnf2_to_cnf_capability_virtual_linkable</title>
<path fill="none" stroke="black" stroke-dasharray="1,5" d="M370.33,-612C389.162,-612 411.801,-612 431.866,-612"/>
</g>
<!-- cnf_instance_requirement_virtual_link_external&#45;&#45;vl_mgmt_network_capability_virtual_linkable -->
<g id="edge18" class="edge"><title>cnf_instance_requirement_virtual_link_external&#45;&#45;vl_mgmt_network_capability_virtual_linkable</title>
<path fill="none" stroke="black" stroke-dasharray="1,5" d="M383.326,-539.894C390.56,-536.446 397.665,-532.487 404,-528 432.242,-507.999 457.285,-476.094 471.403,-456.133"/>
</g>
<!-- sap_mgmt -->
<g id="node17" class="node"><title>sap_mgmt</title>
<path fill="none" stroke="black" d="M85,-180.5C85,-180.5 165,-180.5 165,-180.5 171,-180.5 177,-186.5 177,-192.5 177,-192.5 177,-263.5 177,-263.5 177,-269.5 171,-275.5 165,-275.5 165,-275.5 85,-275.5 85,-275.5 79,-275.5 73,-269.5 73,-263.5 73,-263.5 73,-192.5 73,-192.5 73,-186.5 79,-180.5 85,-180.5"/>
<text text-anchor="middle" x="125" y="-260.3" font-family="Times,serif" font-size="14.00">sap_mgmt: Sap</text>
<polyline fill="none" stroke="black" points="73,-252.5 177,-252.5 "/>
</g>
<!-- sap_mgmt_requirement_external_virtual_link -->
<g id="node18" class="node"><title>sap_mgmt_requirement_external_virtual_link</title>
<polygon fill="turquoise" stroke="black" points="384,-212 262,-212 262,-188 384,-188 396,-200 384,-212"/>
<text text-anchor="middle" x="329" y="-196.3" font-family="Times,serif" font-size="14.00">external_virtual_link</text>
</g>
<!-- sap_mgmt&#45;&#45;sap_mgmt_requirement_external_virtual_link -->
<g id="edge10" class="edge"><title>sap_mgmt&#45;&#45;sap_mgmt_requirement_external_virtual_link</title>
<path fill="none" stroke="black" d="M177.234,-220.898C202.949,-217.334 234.401,-212.974 261.912,-209.161"/>
</g>
<!-- sap_mgmt_requirement_internal_virtual_link -->
<g id="node19" class="node"><title>sap_mgmt_requirement_internal_virtual_link</title>
<polygon fill="turquoise" stroke="black" points="382.5,-267 263.5,-267 263.5,-243 382.5,-243 394.5,-255 382.5,-267"/>
<text text-anchor="middle" x="329" y="-251.3" font-family="Times,serif" font-size="14.00">internal_virtual_link</text>
</g>
<!-- sap_mgmt&#45;&#45;sap_mgmt_requirement_internal_virtual_link -->
<g id="edge11" class="edge"><title>sap_mgmt&#45;&#45;sap_mgmt_requirement_internal_virtual_link</title>
<path fill="none" stroke="black" d="M177.234,-234.848C203.416,-238.348 235.547,-242.642 263.409,-246.367"/>
</g>
<!-- topology_template_substitution_mappings_requirement_virtual_link -->
<g id="node22" class="node"><title>topology_template_substitution_mappings_requirement_virtual_link</title>
<polygon fill="turquoise" stroke="black" points="513.5,-30 443.5,-30 443.5,-6 513.5,-6 525.5,-18 513.5,-30"/>
<text text-anchor="middle" x="484.5" y="-14.3" font-family="Times,serif" font-size="14.00">virtual_link</text>
</g>
<!-- sap_mgmt_requirement_external_virtual_link&#45;&#45;topology_template_substitution_mappings_requirement_virtual_link -->
<g id="edge21" class="edge"><title>sap_mgmt_requirement_external_virtual_link&#45;&#45;topology_template_substitution_mappings_requirement_virtual_link</title>
<path fill="none" stroke="black" stroke-dasharray="1,5" d="M384.004,-181.867C391.22,-178.003 398.14,-173.414 404,-168 444.701,-130.402 468.497,-67.1299 478.267,-36.1696"/>
</g>
<!-- sap_mgmt_requirement_internal_virtual_link&#45;&#45;vl_mgmt_network_capability_virtual_linkable -->
<g id="edge19" class="edge"><title>sap_mgmt_requirement_internal_virtual_link&#45;&#45;vl_mgmt_network_capability_virtual_linkable</title>
<path fill="none" stroke="black" stroke-dasharray="1,5" d="M386.168,-273.004C392.898,-277.068 399.105,-282.008 404,-288 429.924,-319.733 404.357,-342.039 424,-378 432.861,-394.222 447.413,-409.01 459.908,-419.847"/>
</g>
<!-- sap_data -->
<g id="node20" class="node"><title>sap_data</title>
<path fill="none" stroke="black" d="M90,-60.5C90,-60.5 160,-60.5 160,-60.5 166,-60.5 172,-66.5 172,-72.5 172,-72.5 172,-143.5 172,-143.5 172,-149.5 166,-155.5 160,-155.5 160,-155.5 90,-155.5 90,-155.5 84,-155.5 78,-149.5 78,-143.5 78,-143.5 78,-72.5 78,-72.5 78,-66.5 84,-60.5 90,-60.5"/>
<text text-anchor="middle" x="125" y="-140.3" font-family="Times,serif" font-size="14.00">sap_data: Sap</text>
<polyline fill="none" stroke="black" points="78,-132.5 172,-132.5 "/>
</g>
<!-- sap_data_requirement_internal_virtual_link -->
<g id="node21" class="node"><title>sap_data_requirement_internal_virtual_link</title>
<polygon fill="turquoise" stroke="black" points="382.5,-135 263.5,-135 263.5,-111 382.5,-111 394.5,-123 382.5,-135"/>
<text text-anchor="middle" x="329" y="-119.3" font-family="Times,serif" font-size="14.00">internal_virtual_link</text>
</g>
<!-- sap_data&#45;&#45;sap_data_requirement_internal_virtual_link -->
<g id="edge12" class="edge"><title>sap_data&#45;&#45;sap_data_requirement_internal_virtual_link</title>
<path fill="none" stroke="black" d="M172.09,-111.423C199.104,-113.429 233.649,-115.994 263.352,-118.199"/>
</g>
<!-- sap_data_requirement_internal_virtual_link&#45;&#45;vl_data_network_capability_virtual_linkable -->
<g id="edge20" class="edge"><title>sap_data_requirement_internal_virtual_link&#45;&#45;vl_data_network_capability_virtual_linkable</title>
<path fill="none" stroke="black" stroke-dasharray="1,5" d="M368.219,-141.012C380.679,-148.17 393.892,-157.278 404,-168 441.806,-208.105 466.8,-269.657 477.526,-299.923"/>
</g>
</g>
</svg>
