<?xml version="1.0" encoding="UTF-8" standalone="no"?>
<!DOCTYPE svg PUBLIC "-//W3C//DTD SVG 1.1//EN"
 "http://www.w3.org/Graphics/SVG/1.1/DTD/svg11.dtd">
<!-- Generated by graphviz version 2.38.0 (20140413.2041)
 -->
<!-- Title: ToscaDiagram Pages: 1 -->
<svg width="808pt" height="691pt"
 viewBox="0.00 0.00 808.00 691.00" xmlns="http://www.w3.org/2000/svg" xmlns:xlink="http://www.w3.org/1999/xlink">
<g id="graph0" class="graph" transform="scale(1 1) rotate(0) translate(4 687)">
<title>ToscaDiagram</title>
<polygon fill="white" stroke="none" points="-4,4 -4,-687 804,-687 804,4 -4,4"/>
<g id="clust1" class="cluster"><title>clusterSubstitutionMappings</title>
<polygon fill="none" stroke="black" points="8,-44 8,-675 792,-675 792,-44 8,-44"/>
<text text-anchor="middle" x="400" y="-659.8" font-family="Times,serif" font-size="14.00">tosca.nodes.nfv.example_VNF1</text>
</g>
<g id="clust2" class="cluster"><title>clusterextCp_mgmt</title>
<polygon fill="none" stroke="white" points="35,-52 35,-164 393,-164 393,-52 35,-52"/>
</g>
<g id="clust3" class="cluster"><title>clusterintVL_mgmt</title>
<polygon fill="none" stroke="white" points="427.5,-412 427.5,-524 784,-524 784,-412 427.5,-412"/>
</g>
<g id="clust4" class="cluster"><title>clusterintVL_data</title>
<polygon fill="none" stroke="white" points="427.5,-292 427.5,-404 778.5,-404 778.5,-292 427.5,-292"/>
</g>
<g id="clust5" class="cluster"><title>clustervdu_component1</title>
<polygon fill="none" stroke="white" points="426,-532 426,-644 778,-644 778,-532 426,-532"/>
</g>
<g id="clust6" class="cluster"><title>clustervdu_component2</title>
<polygon fill="none" stroke="white" points="426,-172 426,-284 778,-284 778,-172 426,-172"/>
</g>
<g id="clust7" class="cluster"><title>clustercp_component1_mgmt</title>
<polygon fill="none" stroke="white" points="16,-532 16,-644 378.5,-644 378.5,-532 16,-532"/>
</g>
<g id="clust8" class="cluster"><title>clustercp_component1_data</title>
<polygon fill="none" stroke="white" points="21,-412 21,-524 378.5,-524 378.5,-412 21,-412"/>
</g>
<g id="clust9" class="cluster"><title>clustercp_component2_mgmt</title>
<polygon fill="none" stroke="white" points="16,-292 16,-404 378.5,-404 378.5,-292 16,-292"/>
</g>
<g id="clust10" class="cluster"><title>clustercp_component2_data</title>
<polygon fill="none" stroke="white" points="21,-172 21,-284 378.5,-284 378.5,-172 21,-172"/>
</g>
<!-- extCp_mgmt -->
<g id="node1" class="node"><title>extCp_mgmt</title>
<path fill="none" stroke="black" d="M55,-60.5C55,-60.5 187,-60.5 187,-60.5 193,-60.5 199,-66.5 199,-72.5 199,-72.5 199,-143.5 199,-143.5 199,-149.5 193,-155.5 187,-155.5 187,-155.5 55,-155.5 55,-155.5 49,-155.5 43,-149.5 43,-143.5 43,-143.5 43,-72.5 43,-72.5 43,-66.5 49,-60.5 55,-60.5"/>
<text text-anchor="middle" x="121" y="-140.3" font-family="Times,serif" font-size="14.00">extCp_mgmt: VnfExtCp</text>
<polyline fill="none" stroke="black" points="43,-132.5 199,-132.5 "/>
</g>
<!-- extCp_mgmt_requirement_internal_virtual_link -->
<g id="node2" class="node"><title>extCp_mgmt_requirement_internal_virtual_link</title>
<polygon fill="turquoise" stroke="black" points="373,-105 254,-105 254,-81 373,-81 385,-93 373,-105"/>
<text text-anchor="middle" x="319.5" y="-89.3" font-family="Times,serif" font-size="14.00">internal_virtual_link</text>
</g>
<!-- extCp_mgmt&#45;&#45;extCp_mgmt_requirement_internal_virtual_link -->
<g id="edge1" class="edge"><title>extCp_mgmt&#45;&#45;extCp_mgmt_requirement_internal_virtual_link</title>
<path fill="none" stroke="black" d="M199.098,-102.115C217.161,-100.736 236.226,-99.2804 253.691,-97.9473"/>
</g>
<!-- topology_template_substitution_mappings_requirement_virtual_link_external -->
<g id="node25" class="node"><title>topology_template_substitution_mappings_requirement_virtual_link_external</title>
<polygon fill="turquoise" stroke="black" points="543,-30 421,-30 421,-6 543,-6 555,-18 543,-30"/>
<text text-anchor="middle" x="488" y="-14.3" font-family="Times,serif" font-size="14.00">virtual_link_external</text>
</g>
<!-- extCp_mgmt_requirement_internal_virtual_link&#45;&#45;topology_template_substitution_mappings_requirement_virtual_link_external -->
<g id="edge24" class="edge"><title>extCp_mgmt_requirement_internal_virtual_link&#45;&#45;topology_template_substitution_mappings_requirement_virtual_link_external</title>
<path fill="none" stroke="black" stroke-dasharray="1,5" d="M360.805,-74.8446C386.887,-63.0961 420.713,-47.8592 446.778,-36.118"/>
</g>
<!-- intVL_mgmt -->
<g id="node3" class="node"><title>intVL_mgmt</title>
<path fill="none" stroke="black" d="M603,-420.5C603,-420.5 764,-420.5 764,-420.5 770,-420.5 776,-426.5 776,-432.5 776,-432.5 776,-503.5 776,-503.5 776,-509.5 770,-515.5 764,-515.5 764,-515.5 603,-515.5 603,-515.5 597,-515.5 591,-509.5 591,-503.5 591,-503.5 591,-432.5 591,-432.5 591,-426.5 597,-420.5 603,-420.5"/>
<text text-anchor="middle" x="683.5" y="-500.3" font-family="Times,serif" font-size="14.00">intVL_mgmt: VnfVirtualLink</text>
<polyline fill="none" stroke="black" points="591,-492.5 776,-492.5 "/>
</g>
<!-- intVL_mgmt_capability_virtual_linkable -->
<g id="node4" class="node"><title>intVL_mgmt_capability_virtual_linkable</title>
<polygon fill="orange" stroke="black" points="528.5,-480 435.5,-480 435.5,-456 528.5,-456 540.5,-468 528.5,-480"/>
<text text-anchor="middle" x="488" y="-464.3" font-family="Times,serif" font-size="14.00">virtual_linkable</text>
</g>
<!-- intVL_mgmt_capability_virtual_linkable&#45;&#45;intVL_mgmt -->
<g id="edge2" class="edge"><title>intVL_mgmt_capability_virtual_linkable&#45;&#45;intVL_mgmt</title>
<path fill="none" stroke="black" d="M540.6,-468C556.05,-468 573.48,-468 590.701,-468"/>
</g>
<!-- intVL_data -->
<g id="node5" class="node"><title>intVL_data</title>
<path fill="none" stroke="black" d="M608.5,-300.5C608.5,-300.5 758.5,-300.5 758.5,-300.5 764.5,-300.5 770.5,-306.5 770.5,-312.5 770.5,-312.5 770.5,-383.5 770.5,-383.5 770.5,-389.5 764.5,-395.5 758.5,-395.5 758.5,-395.5 608.5,-395.5 608.5,-395.5 602.5,-395.5 596.5,-389.5 596.5,-383.5 596.5,-383.5 596.5,-312.5 596.5,-312.5 596.5,-306.5 602.5,-300.5 608.5,-300.5"/>
<text text-anchor="middle" x="683.5" y="-380.3" font-family="Times,serif" font-size="14.00">intVL_data: VnfVirtualLink</text>
<polyline fill="none" stroke="black" points="596.5,-372.5 770.5,-372.5 "/>
</g>
<!-- intVL_data_capability_virtual_linkable -->
<g id="node6" class="node"><title>intVL_data_capability_virtual_linkable</title>
<polygon fill="orange" stroke="black" points="528.5,-360 435.5,-360 435.5,-336 528.5,-336 540.5,-348 528.5,-360"/>
<text text-anchor="middle" x="488" y="-344.3" font-family="Times,serif" font-size="14.00">virtual_linkable</text>
</g>
<!-- intVL_data_capability_virtual_linkable&#45;&#45;intVL_data -->
<g id="edge3" class="edge"><title>intVL_data_capability_virtual_linkable&#45;&#45;intVL_data</title>
<path fill="none" stroke="black" d="M540.6,-348C557.73,-348 577.293,-348 596.306,-348"/>
</g>
<!-- vdu_component1 -->
<g id="node7" class="node"><title>vdu_component1</title>
<path fill="none" stroke="black" d="M609,-540.5C609,-540.5 758,-540.5 758,-540.5 764,-540.5 770,-546.5 770,-552.5 770,-552.5 770,-623.5 770,-623.5 770,-629.5 764,-635.5 758,-635.5 758,-635.5 609,-635.5 609,-635.5 603,-635.5 597,-629.5 597,-623.5 597,-623.5 597,-552.5 597,-552.5 597,-546.5 603,-540.5 609,-540.5"/>
<text text-anchor="middle" x="683.5" y="-620.3" font-family="Times,serif" font-size="14.00">vdu_component1: Compute</text>
<polyline fill="none" stroke="black" points="597,-612.5 770,-612.5 "/>
</g>
<!-- vdu_component1_capability_virtual_compute -->
<g id="node8" class="node"><title>vdu_component1_capability_virtual_compute</title>
<polygon fill="orange" stroke="black" points="530,-627 434,-627 434,-603 530,-603 542,-615 530,-627"/>
<text text-anchor="middle" x="488" y="-611.3" font-family="Times,serif" font-size="14.00">virtual_compute</text>
</g>
<!-- vdu_component1_capability_virtual_compute&#45;&#45;vdu_component1 -->
<g id="edge4" class="edge"><title>vdu_component1_capability_virtual_compute&#45;&#45;vdu_component1</title>
<path fill="none" stroke="black" d="M542.131,-607.586C559.025,-605.229 578.163,-602.559 596.753,-599.965"/>
</g>
<!-- vdu_component1_capability_virtual_binding -->
<g id="node9" class="node"><title>vdu_component1_capability_virtual_binding</title>
<polygon fill="orange" stroke="black" points="527,-573 437,-573 437,-549 527,-549 539,-561 527,-573"/>
<text text-anchor="middle" x="488" y="-557.3" font-family="Times,serif" font-size="14.00">virtual_binding</text>
</g>
<!-- vdu_component1_capability_virtual_binding&#45;&#45;vdu_component1 -->
<g id="edge5" class="edge"><title>vdu_component1_capability_virtual_binding&#45;&#45;vdu_component1</title>
<path fill="none" stroke="black" d="M539.083,-567.988C556.775,-570.457 577.206,-573.308 597,-576.07"/>
</g>
<!-- vdu_component2 -->
<g id="node10" class="node"><title>vdu_component2</title>
<path fill="none" stroke="black" d="M609,-180.5C609,-180.5 758,-180.5 758,-180.5 764,-180.5 770,-186.5 770,-192.5 770,-192.5 770,-263.5 770,-263.5 770,-269.5 764,-275.5 758,-275.5 758,-275.5 609,-275.5 609,-275.5 603,-275.5 597,-269.5 597,-263.5 597,-263.5 597,-192.5 597,-192.5 597,-186.5 603,-180.5 609,-180.5"/>
<text text-anchor="middle" x="683.5" y="-260.3" font-family="Times,serif" font-size="14.00">vdu_component2: Compute</text>
<polyline fill="none" stroke="black" points="597,-252.5 770,-252.5 "/>
</g>
<!-- vdu_component2_capability_virtual_compute -->
<g id="node11" class="node"><title>vdu_component2_capability_virtual_compute</title>
<polygon fill="orange" stroke="black" points="530,-270 434,-270 434,-246 530,-246 542,-258 530,-270"/>
<text text-anchor="middle" x="488" y="-254.3" font-family="Times,serif" font-size="14.00">virtual_compute</text>
</g>
<!-- vdu_component2_capability_virtual_compute&#45;&#45;vdu_component2 -->
<g id="edge6" class="edge"><title>vdu_component2_capability_virtual_compute&#45;&#45;vdu_component2</title>
<path fill="none" stroke="black" d="M542.131,-249.763C559.025,-247.143 578.163,-244.176 596.753,-241.294"/>
</g>
<!-- vdu_component2_capability_virtual_binding -->
<g id="node12" class="node"><title>vdu_component2_capability_virtual_binding</title>
<polygon fill="orange" stroke="black" points="527,-216 437,-216 437,-192 527,-192 539,-204 527,-216"/>
<text text-anchor="middle" x="488" y="-200.3" font-family="Times,serif" font-size="14.00">virtual_binding</text>
</g>
<!-- vdu_component2_capability_virtual_binding&#45;&#45;vdu_component2 -->
<g id="edge7" class="edge"><title>vdu_component2_capability_virtual_binding&#45;&#45;vdu_component2</title>
<path fill="none" stroke="black" d="M539.083,-210.212C556.775,-212.406 577.206,-214.94 597,-217.395"/>
</g>
<!-- cp_component1_mgmt -->
<g id="node13" class="node"><title>cp_component1_mgmt</title>
<path fill="none" stroke="black" d="M36,-540.5C36,-540.5 206,-540.5 206,-540.5 212,-540.5 218,-546.5 218,-552.5 218,-552.5 218,-623.5 218,-623.5 218,-629.5 212,-635.5 206,-635.5 206,-635.5 36,-635.5 36,-635.5 30,-635.5 24,-629.5 24,-623.5 24,-623.5 24,-552.5 24,-552.5 24,-546.5 30,-540.5 36,-540.5"/>
<text text-anchor="middle" x="121" y="-620.3" font-family="Times,serif" font-size="14.00">cp_component1_mgmt: VduCp</text>
<polyline fill="none" stroke="black" points="24,-612.5 218,-612.5 "/>
</g>
<!-- cp_component1_mgmt_requirement_virtual_link -->
<g id="node14" class="node"><title>cp_component1_mgmt_requirement_virtual_link</title>
<polygon fill="turquoise" stroke="black" points="348.5,-570 278.5,-570 278.5,-546 348.5,-546 360.5,-558 348.5,-570"/>
<text text-anchor="middle" x="319.5" y="-554.3" font-family="Times,serif" font-size="14.00">virtual_link</text>
</g>
<!-- cp_component1_mgmt&#45;&#45;cp_component1_mgmt_requirement_virtual_link -->
<g id="edge8" class="edge"><title>cp_component1_mgmt&#45;&#45;cp_component1_mgmt_requirement_virtual_link</title>
<path fill="none" stroke="black" d="M218.235,-573.308C239.434,-570.071 260.757,-566.816 278.256,-564.144"/>
</g>
<!-- cp_component1_mgmt_requirement_virtual_binding -->
<g id="node15" class="node"><title>cp_component1_mgmt_requirement_virtual_binding</title>
<polygon fill="turquoise" stroke="black" points="358.5,-624 268.5,-624 268.5,-600 358.5,-600 370.5,-612 358.5,-624"/>
<text text-anchor="middle" x="319.5" y="-608.3" font-family="Times,serif" font-size="14.00">virtual_binding</text>
</g>
<!-- cp_component1_mgmt&#45;&#45;cp_component1_mgmt_requirement_virtual_binding -->
<g id="edge9" class="edge"><title>cp_component1_mgmt&#45;&#45;cp_component1_mgmt_requirement_virtual_binding</title>
<path fill="none" stroke="black" d="M218.235,-599.754C235.544,-601.868 252.936,-603.992 268.262,-605.864"/>
</g>
<!-- cp_component1_mgmt_requirement_virtual_link&#45;&#45;intVL_mgmt_capability_virtual_linkable -->
<g id="edge17" class="edge"><title>cp_component1_mgmt_requirement_virtual_link&#45;&#45;intVL_mgmt_capability_virtual_linkable</title>
<path fill="none" stroke="black" stroke-dasharray="1,5" d="M360.584,-542.886C371.289,-538.453 382.731,-533.349 393,-528 417.039,-515.478 442.898,-498.708 461.397,-486.081"/>
</g>
<!-- cp_component1_mgmt_requirement_virtual_binding&#45;&#45;vdu_component1_capability_virtual_binding -->
<g id="edge16" class="edge"><title>cp_component1_mgmt_requirement_virtual_binding&#45;&#45;vdu_component1_capability_virtual_binding</title>
<path fill="none" stroke="black" stroke-dasharray="1,5" d="M370.907,-596.56C391.773,-590.169 415.916,-582.773 436.764,-576.388"/>
</g>
<!-- cp_component1_data -->
<g id="node16" class="node"><title>cp_component1_data</title>
<path fill="none" stroke="black" d="M41,-420.5C41,-420.5 201,-420.5 201,-420.5 207,-420.5 213,-426.5 213,-432.5 213,-432.5 213,-503.5 213,-503.5 213,-509.5 207,-515.5 201,-515.5 201,-515.5 41,-515.5 41,-515.5 35,-515.5 29,-509.5 29,-503.5 29,-503.5 29,-432.5 29,-432.5 29,-426.5 35,-420.5 41,-420.5"/>
<text text-anchor="middle" x="121" y="-500.3" font-family="Times,serif" font-size="14.00">cp_component1_data: VduCp</text>
<polyline fill="none" stroke="black" points="29,-492.5 213,-492.5 "/>
</g>
<!-- cp_component1_data_requirement_virtual_link -->
<g id="node17" class="node"><title>cp_component1_data_requirement_virtual_link</title>
<polygon fill="turquoise" stroke="black" points="348.5,-452 278.5,-452 278.5,-428 348.5,-428 360.5,-440 348.5,-452"/>
<text text-anchor="middle" x="319.5" y="-436.3" font-family="Times,serif" font-size="14.00">virtual_link</text>
</g>
<!-- cp_component1_data&#45;&#45;cp_component1_data_requirement_virtual_link -->
<g id="edge10" class="edge"><title>cp_component1_data&#45;&#45;cp_component1_data_requirement_virtual_link</title>
<path fill="none" stroke="black" d="M213.06,-455.025C235.949,-451.763 259.362,-448.427 278.293,-445.729"/>
</g>
<!-- cp_component1_data_requirement_virtual_binding -->
<g id="node18" class="node"><title>cp_component1_data_requirement_virtual_binding</title>
<polygon fill="turquoise" stroke="black" points="358.5,-507 268.5,-507 268.5,-483 358.5,-483 370.5,-495 358.5,-507"/>
<text text-anchor="middle" x="319.5" y="-491.3" font-family="Times,serif" font-size="14.00">virtual_binding</text>
</g>
<!-- cp_component1_data&#45;&#45;cp_component1_data_requirement_virtual_binding -->
<g id="edge11" class="edge"><title>cp_component1_data&#45;&#45;cp_component1_data_requirement_virtual_binding</title>
<path fill="none" stroke="black" d="M213.06,-480.512C232.134,-483.133 251.572,-485.804 268.477,-488.127"/>
</g>
<!-- cp_component1_data_requirement_virtual_link&#45;&#45;intVL_data_capability_virtual_linkable -->
<g id="edge19" class="edge"><title>cp_component1_data_requirement_virtual_link&#45;&#45;intVL_data_capability_virtual_linkable</title>
<path fill="none" stroke="black" stroke-dasharray="1,5" d="M360.532,-423.634C371.236,-418.906 382.692,-413.523 393,-408 416.721,-395.29 442.395,-378.694 460.908,-366.178"/>
</g>
<!-- cp_component1_data_requirement_virtual_binding&#45;&#45;vdu_component1_capability_virtual_binding -->
<g id="edge18" class="edge"><title>cp_component1_data_requirement_virtual_binding&#45;&#45;vdu_component1_capability_virtual_binding</title>
<path fill="none" stroke="black" stroke-dasharray="1,5" d="M365.997,-513.035C389.49,-522.347 418.073,-533.677 441.558,-542.987"/>
</g>
<!-- cp_component2_mgmt -->
<g id="node19" class="node"><title>cp_component2_mgmt</title>
<path fill="none" stroke="black" d="M36,-300.5C36,-300.5 206,-300.5 206,-300.5 212,-300.5 218,-306.5 218,-312.5 218,-312.5 218,-383.5 218,-383.5 218,-389.5 212,-395.5 206,-395.5 206,-395.5 36,-395.5 36,-395.5 30,-395.5 24,-389.5 24,-383.5 24,-383.5 24,-312.5 24,-312.5 24,-306.5 30,-300.5 36,-300.5"/>
<text text-anchor="middle" x="121" y="-380.3" font-family="Times,serif" font-size="14.00">cp_component2_mgmt: VduCp</text>
<polyline fill="none" stroke="black" points="24,-372.5 218,-372.5 "/>
</g>
<!-- cp_component2_mgmt_requirement_virtual_link -->
<g id="node20" class="node"><title>cp_component2_mgmt_requirement_virtual_link</title>
<polygon fill="turquoise" stroke="black" points="348.5,-389 278.5,-389 278.5,-365 348.5,-365 360.5,-377 348.5,-389"/>
<text text-anchor="middle" x="319.5" y="-373.3" font-family="Times,serif" font-size="14.00">virtual_link</text>
</g>
<!-- cp_component2_mgmt&#45;&#45;cp_component2_mgmt_requirement_virtual_link -->
<g id="edge12" class="edge"><title>cp_component2_mgmt&#45;&#45;cp_component2_mgmt_requirement_virtual_link</title>
<path fill="none" stroke="black" d="M218.235,-362.203C239.434,-365.331 260.757,-368.478 278.256,-371.061"/>
</g>
<!-- cp_component2_mgmt_requirement_virtual_binding -->
<g id="node21" class="node"><title>cp_component2_mgmt_requirement_virtual_binding</title>
<polygon fill="turquoise" stroke="black" points="358.5,-332 268.5,-332 268.5,-308 358.5,-308 370.5,-320 358.5,-332"/>
<text text-anchor="middle" x="319.5" y="-316.3" font-family="Times,serif" font-size="14.00">virtual_binding</text>
</g>
<!-- cp_component2_mgmt&#45;&#45;cp_component2_mgmt_requirement_virtual_binding -->
<g id="edge13" class="edge"><title>cp_component2_mgmt&#45;&#45;cp_component2_mgmt_requirement_virtual_binding</title>
<path fill="none" stroke="black" d="M218.235,-334.287C235.544,-331.821 252.936,-329.342 268.262,-327.159"/>
</g>
<!-- cp_component2_mgmt_requirement_virtual_link&#45;&#45;intVL_mgmt_capability_virtual_linkable -->
<g id="edge21" class="edge"><title>cp_component2_mgmt_requirement_virtual_link&#45;&#45;intVL_mgmt_capability_virtual_linkable</title>
<path fill="none" stroke="black" stroke-dasharray="1,5" d="M360.558,-392.741C371.263,-397.32 382.712,-402.564 393,-408 416.794,-420.572 442.462,-437.18 460.954,-449.736"/>
</g>
<!-- cp_component2_mgmt_requirement_virtual_binding&#45;&#45;vdu_component2_capability_virtual_binding -->
<g id="edge20" class="edge"><title>cp_component2_mgmt_requirement_virtual_binding&#45;&#45;vdu_component2_capability_virtual_binding</title>
<path fill="none" stroke="black" stroke-dasharray="1,5" d="M370.577,-303.483C378.699,-299.304 386.548,-294.193 393,-288 413.362,-268.455 400.372,-250.265 421,-231 425.614,-226.69 431.01,-223.026 436.691,-219.922"/>
</g>
<!-- cp_component2_data -->
<g id="node22" class="node"><title>cp_component2_data</title>
<path fill="none" stroke="black" d="M41,-180.5C41,-180.5 201,-180.5 201,-180.5 207,-180.5 213,-186.5 213,-192.5 213,-192.5 213,-263.5 213,-263.5 213,-269.5 207,-275.5 201,-275.5 201,-275.5 41,-275.5 41,-275.5 35,-275.5 29,-269.5 29,-263.5 29,-263.5 29,-192.5 29,-192.5 29,-186.5 35,-180.5 41,-180.5"/>
<text text-anchor="middle" x="121" y="-260.3" font-family="Times,serif" font-size="14.00">cp_component2_data: VduCp</text>
<polyline fill="none" stroke="black" points="29,-252.5 213,-252.5 "/>
</g>
<!-- cp_component2_data_requirement_virtual_link -->
<g id="node23" class="node"><title>cp_component2_data_requirement_virtual_link</title>
<polygon fill="turquoise" stroke="black" points="348.5,-270 278.5,-270 278.5,-246 348.5,-246 360.5,-258 348.5,-270"/>
<text text-anchor="middle" x="319.5" y="-254.3" font-family="Times,serif" font-size="14.00">virtual_link</text>
</g>
<!-- cp_component2_data&#45;&#45;cp_component2_data_requirement_virtual_link -->
<g id="edge14" class="edge"><title>cp_component2_data&#45;&#45;cp_component2_data_requirement_virtual_link</title>
<path fill="none" stroke="black" d="M213.06,-241.902C235.949,-245.397 259.362,-248.971 278.293,-251.861"/>
</g>
<!-- cp_component2_data_requirement_virtual_binding -->
<g id="node24" class="node"><title>cp_component2_data_requirement_virtual_binding</title>
<polygon fill="turquoise" stroke="black" points="358.5,-216 268.5,-216 268.5,-192 358.5,-192 370.5,-204 358.5,-216"/>
<text text-anchor="middle" x="319.5" y="-200.3" font-family="Times,serif" font-size="14.00">virtual_binding</text>
</g>
<!-- cp_component2_data&#45;&#45;cp_component2_data_requirement_virtual_binding -->
<g id="edge15" class="edge"><title>cp_component2_data&#45;&#45;cp_component2_data_requirement_virtual_binding</title>
<path fill="none" stroke="black" d="M213.06,-216.878C232.134,-214.548 251.572,-212.174 268.477,-210.11"/>
</g>
<!-- cp_component2_data_requirement_virtual_link&#45;&#45;intVL_data_capability_virtual_linkable -->
<g id="edge23" class="edge"><title>cp_component2_data_requirement_virtual_link&#45;&#45;intVL_data_capability_virtual_linkable</title>
<path fill="none" stroke="black" stroke-dasharray="1,5" d="M360.584,-273.114C371.289,-277.547 382.731,-282.651 393,-288 417.039,-300.522 442.898,-317.292 461.397,-329.919"/>
</g>
<!-- cp_component2_data_requirement_virtual_binding&#45;&#45;vdu_component2_capability_virtual_binding -->
<g id="edge22" class="edge"><title>cp_component2_data_requirement_virtual_binding&#45;&#45;vdu_component2_capability_virtual_binding</title>
<path fill="none" stroke="black" stroke-dasharray="1,5" d="M370.907,-204C391.773,-204 415.916,-204 436.764,-204"/>
</g>
</g>
</svg>
