<?xml version="1.0" encoding="UTF-8" standalone="no"?>
<!DOCTYPE svg PUBLIC "-//W3C//DTD SVG 1.1//EN"
 "http://www.w3.org/Graphics/SVG/1.1/DTD/svg11.dtd">
<!-- Generated by graphviz version 2.38.0 (20140413.2041)
 -->
<!-- Title: ToscaDiagram Pages: 1 -->
<svg width="811pt" height="691pt"
 viewBox="0.00 0.00 811.00 691.00" xmlns="http://www.w3.org/2000/svg" xmlns:xlink="http://www.w3.org/1999/xlink">
<g id="graph0" class="graph" transform="scale(1 1) rotate(0) translate(4 687)">
<title>ToscaDiagram</title>
<polygon fill="white" stroke="none" points="-4,4 -4,-687 807,-687 807,4 -4,4"/>
<g id="clust1" class="cluster"><title>clusterSubstitutionMappings</title>
<polygon fill="none" stroke="black" points="8,-44 8,-675 795,-675 795,-44 8,-44"/>
<text text-anchor="middle" x="401.5" y="-659.8" font-family="Times,serif" font-size="14.00">tosca.nodes.nfv.example_VNF2</text>
</g>
<g id="clust2" class="cluster"><title>clusterextCp_mgmt</title>
<polygon fill="none" stroke="white" points="36.5,-52 36.5,-164 396,-164 396,-52 36.5,-52"/>
</g>
<g id="clust3" class="cluster"><title>clusterintVL_mgmt</title>
<polygon fill="none" stroke="white" points="430.5,-412 430.5,-524 787,-524 787,-412 430.5,-412"/>
</g>
<g id="clust4" class="cluster"><title>clusterintVL_data</title>
<polygon fill="none" stroke="white" points="430.5,-292 430.5,-404 781.5,-404 781.5,-292 430.5,-292"/>
</g>
<g id="clust5" class="cluster"><title>clustervdu_componentA</title>
<polygon fill="none" stroke="white" points="429,-532 429,-644 782.5,-644 782.5,-532 429,-532"/>
</g>
<g id="clust6" class="cluster"><title>clustervdu_componentB</title>
<polygon fill="none" stroke="white" points="429,-172 429,-284 781.5,-284 781.5,-172 429,-172"/>
</g>
<g id="clust7" class="cluster"><title>clustercp_componentA_mgmt</title>
<polygon fill="none" stroke="white" points="16,-532 16,-644 381.5,-644 381.5,-532 16,-532"/>
</g>
<g id="clust8" class="cluster"><title>clustercp_componentA_data</title>
<polygon fill="none" stroke="white" points="21,-412 21,-524 381.5,-524 381.5,-412 21,-412"/>
</g>
<g id="clust9" class="cluster"><title>clustercp_componentB_mgmt</title>
<polygon fill="none" stroke="white" points="16.5,-292 16.5,-404 381.5,-404 381.5,-292 16.5,-292"/>
</g>
<g id="clust10" class="cluster"><title>clustercp_componentB_data</title>
<polygon fill="none" stroke="white" points="22,-172 22,-284 381.5,-284 381.5,-172 22,-172"/>
</g>
<!-- extCp_mgmt -->
<g id="node1" class="node"><title>extCp_mgmt</title>
<path fill="none" stroke="black" d="M56.5,-60.5C56.5,-60.5 188.5,-60.5 188.5,-60.5 194.5,-60.5 200.5,-66.5 200.5,-72.5 200.5,-72.5 200.5,-143.5 200.5,-143.5 200.5,-149.5 194.5,-155.5 188.5,-155.5 188.5,-155.5 56.5,-155.5 56.5,-155.5 50.5,-155.5 44.5,-149.5 44.5,-143.5 44.5,-143.5 44.5,-72.5 44.5,-72.5 44.5,-66.5 50.5,-60.5 56.5,-60.5"/>
<text text-anchor="middle" x="122.5" y="-140.3" font-family="Times,serif" font-size="14.00">extCp_mgmt: VnfExtCp</text>
<polyline fill="none" stroke="black" points="44.5,-132.5 200.5,-132.5 "/>
</g>
<!-- extCp_mgmt_requirement_internal_virtual_link -->
<g id="node2" class="node"><title>extCp_mgmt_requirement_internal_virtual_link</title>
<polygon fill="turquoise" stroke="black" points="376,-105 257,-105 257,-81 376,-81 388,-93 376,-105"/>
<text text-anchor="middle" x="322.5" y="-89.3" font-family="Times,serif" font-size="14.00">internal_virtual_link</text>
</g>
<!-- extCp_mgmt&#45;&#45;extCp_mgmt_requirement_internal_virtual_link -->
<g id="edge1" class="edge"><title>extCp_mgmt&#45;&#45;extCp_mgmt_requirement_internal_virtual_link</title>
<path fill="none" stroke="black" d="M200.619,-102.158C219.187,-100.751 238.836,-99.2624 256.772,-97.9036"/>
</g>
<!-- topology_template_substitution_mappings_requirement_virtual_link_external -->
<g id="node25" class="node"><title>topology_template_substitution_mappings_requirement_virtual_link_external</title>
<polygon fill="turquoise" stroke="black" points="546,-30 424,-30 424,-6 546,-6 558,-18 546,-30"/>
<text text-anchor="middle" x="491" y="-14.3" font-family="Times,serif" font-size="14.00">virtual_link_external</text>
</g>
<!-- extCp_mgmt_requirement_internal_virtual_link&#45;&#45;topology_template_substitution_mappings_requirement_virtual_link_external -->
<g id="edge24" class="edge"><title>extCp_mgmt_requirement_internal_virtual_link&#45;&#45;topology_template_substitution_mappings_requirement_virtual_link_external</title>
<path fill="none" stroke="black" stroke-dasharray="1,5" d="M363.805,-74.8446C389.887,-63.0961 423.713,-47.8592 449.778,-36.118"/>
</g>
<!-- intVL_mgmt -->
<g id="node3" class="node"><title>intVL_mgmt</title>
<path fill="none" stroke="black" d="M606,-420.5C606,-420.5 767,-420.5 767,-420.5 773,-420.5 779,-426.5 779,-432.5 779,-432.5 779,-503.5 779,-503.5 779,-509.5 773,-515.5 767,-515.5 767,-515.5 606,-515.5 606,-515.5 600,-515.5 594,-509.5 594,-503.5 594,-503.5 594,-432.5 594,-432.5 594,-426.5 600,-420.5 606,-420.5"/>
<text text-anchor="middle" x="686.5" y="-500.3" font-family="Times,serif" font-size="14.00">intVL_mgmt: VnfVirtualLink</text>
<polyline fill="none" stroke="black" points="594,-492.5 779,-492.5 "/>
</g>
<!-- intVL_mgmt_capability_virtual_linkable -->
<g id="node4" class="node"><title>intVL_mgmt_capability_virtual_linkable</title>
<polygon fill="orange" stroke="black" points="531.5,-480 438.5,-480 438.5,-456 531.5,-456 543.5,-468 531.5,-480"/>
<text text-anchor="middle" x="491" y="-464.3" font-family="Times,serif" font-size="14.00">virtual_linkable</text>
</g>
<!-- intVL_mgmt_capability_virtual_linkable&#45;&#45;intVL_mgmt -->
<g id="edge2" class="edge"><title>intVL_mgmt_capability_virtual_linkable&#45;&#45;intVL_mgmt</title>
<path fill="none" stroke="black" d="M543.6,-468C559.05,-468 576.48,-468 593.701,-468"/>
</g>
<!-- intVL_data -->
<g id="node5" class="node"><title>intVL_data</title>
<path fill="none" stroke="black" d="M611.5,-300.5C611.5,-300.5 761.5,-300.5 761.5,-300.5 767.5,-300.5 773.5,-306.5 773.5,-312.5 773.5,-312.5 773.5,-383.5 773.5,-383.5 773.5,-389.5 767.5,-395.5 761.5,-395.5 761.5,-395.5 611.5,-395.5 611.5,-395.5 605.5,-395.5 599.5,-389.5 599.5,-383.5 599.5,-383.5 599.5,-312.5 599.5,-312.5 599.5,-306.5 605.5,-300.5 611.5,-300.5"/>
<text text-anchor="middle" x="686.5" y="-380.3" font-family="Times,serif" font-size="14.00">intVL_data: VnfVirtualLink</text>
<polyline fill="none" stroke="black" points="599.5,-372.5 773.5,-372.5 "/>
</g>
<!-- intVL_data_capability_virtual_linkable -->
<g id="node6" class="node"><title>intVL_data_capability_virtual_linkable</title>
<polygon fill="orange" stroke="black" points="531.5,-360 438.5,-360 438.5,-336 531.5,-336 543.5,-348 531.5,-360"/>
<text text-anchor="middle" x="491" y="-344.3" font-family="Times,serif" font-size="14.00">virtual_linkable</text>
</g>
<!-- intVL_data_capability_virtual_linkable&#45;&#45;intVL_data -->
<g id="edge3" class="edge"><title>intVL_data_capability_virtual_linkable&#45;&#45;intVL_data</title>
<path fill="none" stroke="black" d="M543.6,-348C560.73,-348 580.293,-348 599.306,-348"/>
</g>
<!-- vdu_componentA -->
<g id="node7" class="node"><title>vdu_componentA</title>
<path fill="none" stroke="black" d="M610.5,-540.5C610.5,-540.5 762.5,-540.5 762.5,-540.5 768.5,-540.5 774.5,-546.5 774.5,-552.5 774.5,-552.5 774.5,-623.5 774.5,-623.5 774.5,-629.5 768.5,-635.5 762.5,-635.5 762.5,-635.5 610.5,-635.5 610.5,-635.5 604.5,-635.5 598.5,-629.5 598.5,-623.5 598.5,-623.5 598.5,-552.5 598.5,-552.5 598.5,-546.5 604.5,-540.5 610.5,-540.5"/>
<text text-anchor="middle" x="686.5" y="-620.3" font-family="Times,serif" font-size="14.00">vdu_componentA: Compute</text>
<polyline fill="none" stroke="black" points="598.5,-612.5 774.5,-612.5 "/>
</g>
<!-- vdu_componentA_capability_virtual_compute -->
<g id="node8" class="node"><title>vdu_componentA_capability_virtual_compute</title>
<polygon fill="orange" stroke="black" points="533,-627 437,-627 437,-603 533,-603 545,-615 533,-627"/>
<text text-anchor="middle" x="491" y="-611.3" font-family="Times,serif" font-size="14.00">virtual_compute</text>
</g>
<!-- vdu_componentA_capability_virtual_compute&#45;&#45;vdu_componentA -->
<g id="edge4" class="edge"><title>vdu_componentA_capability_virtual_compute&#45;&#45;vdu_componentA</title>
<path fill="none" stroke="black" d="M545.131,-607.586C561.577,-605.292 580.151,-602.7 598.274,-600.171"/>
</g>
<!-- vdu_componentA_capability_virtual_binding -->
<g id="node9" class="node"><title>vdu_componentA_capability_virtual_binding</title>
<polygon fill="orange" stroke="black" points="530,-573 440,-573 440,-549 530,-549 542,-561 530,-573"/>
<text text-anchor="middle" x="491" y="-557.3" font-family="Times,serif" font-size="14.00">virtual_binding</text>
</g>
<!-- vdu_componentA_capability_virtual_binding&#45;&#45;vdu_componentA -->
<g id="edge5" class="edge"><title>vdu_componentA_capability_virtual_binding&#45;&#45;vdu_componentA</title>
<path fill="none" stroke="black" d="M542.083,-567.988C559.327,-570.395 579.173,-573.164 598.495,-575.86"/>
</g>
<!-- vdu_componentB -->
<g id="node10" class="node"><title>vdu_componentB</title>
<path fill="none" stroke="black" d="M611.5,-180.5C611.5,-180.5 761.5,-180.5 761.5,-180.5 767.5,-180.5 773.5,-186.5 773.5,-192.5 773.5,-192.5 773.5,-263.5 773.5,-263.5 773.5,-269.5 767.5,-275.5 761.5,-275.5 761.5,-275.5 611.5,-275.5 611.5,-275.5 605.5,-275.5 599.5,-269.5 599.5,-263.5 599.5,-263.5 599.5,-192.5 599.5,-192.5 599.5,-186.5 605.5,-180.5 611.5,-180.5"/>
<text text-anchor="middle" x="686.5" y="-260.3" font-family="Times,serif" font-size="14.00">vdu_componentB: Compute</text>
<polyline fill="none" stroke="black" points="599.5,-252.5 773.5,-252.5 "/>
</g>
<!-- vdu_componentB_capability_virtual_compute -->
<g id="node11" class="node"><title>vdu_componentB_capability_virtual_compute</title>
<polygon fill="orange" stroke="black" points="533,-270 437,-270 437,-246 533,-246 545,-258 533,-270"/>
<text text-anchor="middle" x="491" y="-254.3" font-family="Times,serif" font-size="14.00">virtual_compute</text>
</g>
<!-- vdu_componentB_capability_virtual_compute&#45;&#45;vdu_componentB -->
<g id="edge6" class="edge"><title>vdu_componentB_capability_virtual_compute&#45;&#45;vdu_componentB</title>
<path fill="none" stroke="black" d="M545.131,-249.763C561.913,-247.161 580.91,-244.216 599.383,-241.351"/>
</g>
<!-- vdu_componentB_capability_virtual_binding -->
<g id="node12" class="node"><title>vdu_componentB_capability_virtual_binding</title>
<polygon fill="orange" stroke="black" points="530,-216 440,-216 440,-192 530,-192 542,-204 530,-216"/>
<text text-anchor="middle" x="491" y="-200.3" font-family="Times,serif" font-size="14.00">virtual_binding</text>
</g>
<!-- vdu_componentB_capability_virtual_binding&#45;&#45;vdu_componentB -->
<g id="edge7" class="edge"><title>vdu_componentB_capability_virtual_binding&#45;&#45;vdu_componentB</title>
<path fill="none" stroke="black" d="M542.083,-210.212C559.551,-212.378 579.689,-214.876 599.248,-217.302"/>
</g>
<!-- cp_componentA_mgmt -->
<g id="node13" class="node"><title>cp_componentA_mgmt</title>
<path fill="none" stroke="black" d="M36,-540.5C36,-540.5 209,-540.5 209,-540.5 215,-540.5 221,-546.5 221,-552.5 221,-552.5 221,-623.5 221,-623.5 221,-629.5 215,-635.5 209,-635.5 209,-635.5 36,-635.5 36,-635.5 30,-635.5 24,-629.5 24,-623.5 24,-623.5 24,-552.5 24,-552.5 24,-546.5 30,-540.5 36,-540.5"/>
<text text-anchor="middle" x="122.5" y="-620.3" font-family="Times,serif" font-size="14.00">cp_componentA_mgmt: VduCp</text>
<polyline fill="none" stroke="black" points="24,-612.5 221,-612.5 "/>
</g>
<!-- cp_componentA_mgmt_requirement_virtual_link -->
<g id="node14" class="node"><title>cp_componentA_mgmt_requirement_virtual_link</title>
<polygon fill="turquoise" stroke="black" points="351.5,-570 281.5,-570 281.5,-546 351.5,-546 363.5,-558 351.5,-570"/>
<text text-anchor="middle" x="322.5" y="-554.3" font-family="Times,serif" font-size="14.00">virtual_link</text>
</g>
<!-- cp_componentA_mgmt&#45;&#45;cp_componentA_mgmt_requirement_virtual_link -->
<g id="edge8" class="edge"><title>cp_componentA_mgmt&#45;&#45;cp_componentA_mgmt_requirement_virtual_link</title>
<path fill="none" stroke="black" d="M221.05,-573.22C242.33,-569.995 263.699,-566.758 281.224,-564.102"/>
</g>
<!-- cp_componentA_mgmt_requirement_virtual_binding -->
<g id="node15" class="node"><title>cp_componentA_mgmt_requirement_virtual_binding</title>
<polygon fill="turquoise" stroke="black" points="361.5,-624 271.5,-624 271.5,-600 361.5,-600 373.5,-612 361.5,-624"/>
<text text-anchor="middle" x="322.5" y="-608.3" font-family="Times,serif" font-size="14.00">virtual_binding</text>
</g>
<!-- cp_componentA_mgmt&#45;&#45;cp_componentA_mgmt_requirement_virtual_binding -->
<g id="edge9" class="edge"><title>cp_componentA_mgmt&#45;&#45;cp_componentA_mgmt_requirement_virtual_binding</title>
<path fill="none" stroke="black" d="M221.05,-599.824C238.523,-601.942 256.056,-604.067 271.472,-605.936"/>
</g>
<!-- cp_componentA_mgmt_requirement_virtual_link&#45;&#45;intVL_mgmt_capability_virtual_linkable -->
<g id="edge17" class="edge"><title>cp_componentA_mgmt_requirement_virtual_link&#45;&#45;intVL_mgmt_capability_virtual_linkable</title>
<path fill="none" stroke="black" stroke-dasharray="1,5" d="M363.584,-542.886C374.289,-538.453 385.731,-533.349 396,-528 420.039,-515.478 445.898,-498.708 464.397,-486.081"/>
</g>
<!-- cp_componentA_mgmt_requirement_virtual_binding&#45;&#45;vdu_componentA_capability_virtual_binding -->
<g id="edge16" class="edge"><title>cp_componentA_mgmt_requirement_virtual_binding&#45;&#45;vdu_componentA_capability_virtual_binding</title>
<path fill="none" stroke="black" stroke-dasharray="1,5" d="M373.907,-596.56C394.773,-590.169 418.916,-582.773 439.764,-576.388"/>
</g>
<!-- cp_componentA_data -->
<g id="node16" class="node"><title>cp_componentA_data</title>
<path fill="none" stroke="black" d="M41,-420.5C41,-420.5 204,-420.5 204,-420.5 210,-420.5 216,-426.5 216,-432.5 216,-432.5 216,-503.5 216,-503.5 216,-509.5 210,-515.5 204,-515.5 204,-515.5 41,-515.5 41,-515.5 35,-515.5 29,-509.5 29,-503.5 29,-503.5 29,-432.5 29,-432.5 29,-426.5 35,-420.5 41,-420.5"/>
<text text-anchor="middle" x="122.5" y="-500.3" font-family="Times,serif" font-size="14.00">cp_componentA_data: VduCp</text>
<polyline fill="none" stroke="black" points="29,-492.5 216,-492.5 "/>
</g>
<!-- cp_componentA_data_requirement_virtual_link -->
<g id="node17" class="node"><title>cp_componentA_data_requirement_virtual_link</title>
<polygon fill="turquoise" stroke="black" points="351.5,-452 281.5,-452 281.5,-428 351.5,-428 363.5,-440 351.5,-452"/>
<text text-anchor="middle" x="322.5" y="-436.3" font-family="Times,serif" font-size="14.00">virtual_link</text>
</g>
<!-- cp_componentA_data&#45;&#45;cp_componentA_data_requirement_virtual_link -->
<g id="edge10" class="edge"><title>cp_componentA_data&#45;&#45;cp_componentA_data_requirement_virtual_link</title>
<path fill="none" stroke="black" d="M216.123,-454.902C239.071,-451.657 262.477,-448.347 281.383,-445.673"/>
</g>
<!-- cp_componentA_data_requirement_virtual_binding -->
<g id="node18" class="node"><title>cp_componentA_data_requirement_virtual_binding</title>
<polygon fill="turquoise" stroke="black" points="361.5,-507 271.5,-507 271.5,-483 361.5,-483 373.5,-495 361.5,-507"/>
<text text-anchor="middle" x="322.5" y="-491.3" font-family="Times,serif" font-size="14.00">virtual_binding</text>
</g>
<!-- cp_componentA_data&#45;&#45;cp_componentA_data_requirement_virtual_binding -->
<g id="edge11" class="edge"><title>cp_componentA_data&#45;&#45;cp_componentA_data_requirement_virtual_binding</title>
<path fill="none" stroke="black" d="M216.123,-480.63C235.145,-483.224 254.483,-485.861 271.311,-488.156"/>
</g>
<!-- cp_componentA_data_requirement_virtual_link&#45;&#45;intVL_data_capability_virtual_linkable -->
<g id="edge19" class="edge"><title>cp_componentA_data_requirement_virtual_link&#45;&#45;intVL_data_capability_virtual_linkable</title>
<path fill="none" stroke="black" stroke-dasharray="1,5" d="M363.532,-423.634C374.236,-418.906 385.692,-413.523 396,-408 419.721,-395.29 445.395,-378.694 463.908,-366.178"/>
</g>
<!-- cp_componentA_data_requirement_virtual_binding&#45;&#45;vdu_componentA_capability_virtual_binding -->
<g id="edge18" class="edge"><title>cp_componentA_data_requirement_virtual_binding&#45;&#45;vdu_componentA_capability_virtual_binding</title>
<path fill="none" stroke="black" stroke-dasharray="1,5" d="M368.997,-513.035C392.49,-522.347 421.073,-533.677 444.558,-542.987"/>
</g>
<!-- cp_componentB_mgmt -->
<g id="node19" class="node"><title>cp_componentB_mgmt</title>
<path fill="none" stroke="black" d="M36.5,-300.5C36.5,-300.5 208.5,-300.5 208.5,-300.5 214.5,-300.5 220.5,-306.5 220.5,-312.5 220.5,-312.5 220.5,-383.5 220.5,-383.5 220.5,-389.5 214.5,-395.5 208.5,-395.5 208.5,-395.5 36.5,-395.5 36.5,-395.5 30.5,-395.5 24.5,-389.5 24.5,-383.5 24.5,-383.5 24.5,-312.5 24.5,-312.5 24.5,-306.5 30.5,-300.5 36.5,-300.5"/>
<text text-anchor="middle" x="122.5" y="-380.3" font-family="Times,serif" font-size="14.00">cp_componentB_mgmt: VduCp</text>
<polyline fill="none" stroke="black" points="24.5,-372.5 220.5,-372.5 "/>
</g>
<!-- cp_componentB_mgmt_requirement_virtual_link -->
<g id="node20" class="node"><title>cp_componentB_mgmt_requirement_virtual_link</title>
<polygon fill="turquoise" stroke="black" points="351.5,-389 281.5,-389 281.5,-365 351.5,-365 363.5,-377 351.5,-389"/>
<text text-anchor="middle" x="322.5" y="-373.3" font-family="Times,serif" font-size="14.00">virtual_link</text>
</g>
<!-- cp_componentB_mgmt&#45;&#45;cp_componentB_mgmt_requirement_virtual_link -->
<g id="edge12" class="edge"><title>cp_componentB_mgmt&#45;&#45;cp_componentB_mgmt_requirement_virtual_link</title>
<path fill="none" stroke="black" d="M220.76,-362.245C242.08,-365.368 263.508,-368.506 281.087,-371.081"/>
</g>
<!-- cp_componentB_mgmt_requirement_virtual_binding -->
<g id="node21" class="node"><title>cp_componentB_mgmt_requirement_virtual_binding</title>
<polygon fill="turquoise" stroke="black" points="361.5,-332 271.5,-332 271.5,-308 361.5,-308 373.5,-320 361.5,-332"/>
<text text-anchor="middle" x="322.5" y="-316.3" font-family="Times,serif" font-size="14.00">virtual_binding</text>
</g>
<!-- cp_componentB_mgmt&#45;&#45;cp_componentB_mgmt_requirement_virtual_binding -->
<g id="edge13" class="edge"><title>cp_componentB_mgmt&#45;&#45;cp_componentB_mgmt_requirement_virtual_binding</title>
<path fill="none" stroke="black" d="M220.76,-334.246C238.266,-331.77 255.845,-329.285 271.305,-327.098"/>
</g>
<!-- cp_componentB_mgmt_requirement_virtual_link&#45;&#45;intVL_mgmt_capability_virtual_linkable -->
<g id="edge21" class="edge"><title>cp_componentB_mgmt_requirement_virtual_link&#45;&#45;intVL_mgmt_capability_virtual_linkable</title>
<path fill="none" stroke="black" stroke-dasharray="1,5" d="M363.558,-392.741C374.263,-397.32 385.712,-402.564 396,-408 419.794,-420.572 445.462,-437.18 463.954,-449.736"/>
</g>
<!-- cp_componentB_mgmt_requirement_virtual_binding&#45;&#45;vdu_componentB_capability_virtual_binding -->
<g id="edge20" class="edge"><title>cp_componentB_mgmt_requirement_virtual_binding&#45;&#45;vdu_componentB_capability_virtual_binding</title>
<path fill="none" stroke="black" stroke-dasharray="1,5" d="M373.577,-303.483C381.699,-299.304 389.548,-294.193 396,-288 416.362,-268.455 403.372,-250.265 424,-231 428.614,-226.69 434.01,-223.026 439.691,-219.922"/>
</g>
<!-- cp_componentB_data -->
<g id="node22" class="node"><title>cp_componentB_data</title>
<path fill="none" stroke="black" d="M42,-180.5C42,-180.5 203,-180.5 203,-180.5 209,-180.5 215,-186.5 215,-192.5 215,-192.5 215,-263.5 215,-263.5 215,-269.5 209,-275.5 203,-275.5 203,-275.5 42,-275.5 42,-275.5 36,-275.5 30,-269.5 30,-263.5 30,-263.5 30,-192.5 30,-192.5 30,-186.5 36,-180.5 42,-180.5"/>
<text text-anchor="middle" x="122.5" y="-260.3" font-family="Times,serif" font-size="14.00">cp_componentB_data: VduCp</text>
<polyline fill="none" stroke="black" points="30,-252.5 215,-252.5 "/>
</g>
<!-- cp_componentB_data_requirement_virtual_link -->
<g id="node23" class="node"><title>cp_componentB_data_requirement_virtual_link</title>
<polygon fill="turquoise" stroke="black" points="351.5,-270 281.5,-270 281.5,-246 351.5,-246 363.5,-258 351.5,-270"/>
<text text-anchor="middle" x="322.5" y="-254.3" font-family="Times,serif" font-size="14.00">virtual_link</text>
</g>
<!-- cp_componentB_data&#45;&#45;cp_componentB_data_requirement_virtual_link -->
<g id="edge14" class="edge"><title>cp_componentB_data&#45;&#45;cp_componentB_data_requirement_virtual_link</title>
<path fill="none" stroke="black" d="M215.255,-241.902C238.521,-245.427 262.324,-249.034 281.487,-251.937"/>
</g>
<!-- cp_componentB_data_requirement_virtual_binding -->
<g id="node24" class="node"><title>cp_componentB_data_requirement_virtual_binding</title>
<polygon fill="turquoise" stroke="black" points="361.5,-216 271.5,-216 271.5,-192 361.5,-192 373.5,-204 361.5,-216"/>
<text text-anchor="middle" x="322.5" y="-200.3" font-family="Times,serif" font-size="14.00">virtual_binding</text>
</g>
<!-- cp_componentB_data&#45;&#45;cp_componentB_data_requirement_virtual_binding -->
<g id="edge15" class="edge"><title>cp_componentB_data&#45;&#45;cp_componentB_data_requirement_virtual_binding</title>
<path fill="none" stroke="black" d="M215.255,-216.878C234.576,-214.536 254.267,-212.149 271.364,-210.077"/>
</g>
<!-- cp_componentB_data_requirement_virtual_link&#45;&#45;intVL_data_capability_virtual_linkable -->
<g id="edge23" class="edge"><title>cp_componentB_data_requirement_virtual_link&#45;&#45;intVL_data_capability_virtual_linkable</title>
<path fill="none" stroke="black" stroke-dasharray="1,5" d="M363.584,-273.114C374.289,-277.547 385.731,-282.651 396,-288 420.039,-300.522 445.898,-317.292 464.397,-329.919"/>
</g>
<!-- cp_componentB_data_requirement_virtual_binding&#45;&#45;vdu_componentB_capability_virtual_binding -->
<g id="edge22" class="edge"><title>cp_componentB_data_requirement_virtual_binding&#45;&#45;vdu_componentB_capability_virtual_binding</title>
<path fill="none" stroke="black" stroke-dasharray="1,5" d="M373.907,-204C394.773,-204 418.916,-204 439.764,-204"/>
</g>
</g>
</svg>
